<svg xmlns="http://www.w3.org/2000/svg" xmlns:xlink="http://www.w3.org/1999/xlink" id="Layer_1" x="0px" y="0px" width="999.999px" height="680.525px" viewBox="0 0 999.999 680.525" xml:space="preserve">
<g>
	<g>
		<defs>
			<path id="SVGID_1_" d="M878.979,0c0,0-12.315,7.817-45.282,7.338c-32.89-0.517-172.495-4.794-243.257,80.716     c-70.761,85.511-44.966,244.53-44.966,244.53s160.936,27.212,246.224-43.808c85.327-71,80.644-210.568,80.091-243.533     C871.163,12.317,878.979,0,878.979,0z"></path>
		</defs>
		<clipPath id="SVGID_2_">
			<use xlink:href="#SVGID_1_"></use>
		</clipPath>
		
			<linearGradient id="SVGID_3_" gradientUnits="userSpaceOnUse" x1="140.5845" y1="752.0405" x2="178.344" y2="752.0405" gradientTransform="matrix(-9.5495 9.5495 9.5495 9.5495 -4946.6396 -8537.4082)">
			<stop offset="0" style="stop-color:#5F3090"></stop>
			<stop offset="0.49" style="stop-color:#99298E"></stop>
			<stop offset="1" style="stop-color:#AA258C"></stop>
		</linearGradient>
		<polygon clip-path="url(#SVGID_2_)" fill="url(#SVGID_3_)" points="1058.851,179.908 699.33,539.447 339.792,179.908     699.33,-179.612   "></polygon>
	</g>
	<path fill-rule="evenodd" clip-rule="evenodd" fill="#66318C" d="M324.36,469.091c0-37.758-9.716-64.162-56.066-64.162v-33.775   c78.799,0,101.329,48.23,101.329,98.012c0,50.516-22.456,98.23-101.329,98.451v-33.85   C324.877,533.767,324.36,533.031,324.36,469.091 M268.294,404.929c-56.602,0-56.122,0.518-56.122,64.162   c0,38.791,10.841,64.676,55.55,64.676h0.572v33.85h-0.462c-80.236,0-100.849-48.305-100.849-98.451   c0-49.781,21.553-98.012,101.311-98.012V404.929z"></path>
	<path fill-rule="evenodd" clip-rule="evenodd" fill="#66318C" d="M398.68,527.277V299.84c10.343,0,27.987-1.918,36.893,5.089   c6.12,4.719,7.559,13.644,7.559,31.932v228.396C394.789,565.257,398.68,563.414,398.68,527.277"></path>
	<path fill-rule="evenodd" clip-rule="evenodd" fill="#66318C" d="M637.234,469.091c0-37.758-9.733-64.162-56.085-64.162v-33.775   c78.8,0,101.292,48.23,101.292,98.012c0,50.516-22.418,98.23-101.292,98.451v-33.85c56.601,0,56.012-0.295,56.012-64.232   L637.234,469.091z M581.149,404.929c-56.638,0-56.066,0.518-56.066,64.162c0,38.791,10.786,64.676,55.495,64.676h0.571v33.85   h-0.498c-80.2,0-100.813-48.305-100.813-98.451c0-49.781,21.553-98.012,101.311-98.012V404.929z"></path>
	<path fill-rule="evenodd" clip-rule="evenodd" fill="#66318C" d="M811.058,372.554v23.822   c-1.843,19.689-14.085,18.361-30.975,18.361c-20.132,0-25.773,6.344-27.176,24.117c-0.922,6.637-0.442,14.527-0.442,24.41v101.992   c-48.341,0-44.432-1.402-44.432-37.021V372.998c36.835,0,34.108,0.369,34.108,27.656c9.844-15.93,32.337-29.574,69.359-28.1   H811.058z"></path>
	<path fill-rule="evenodd" clip-rule="evenodd" fill="#66318C" d="M896.421,447.115c-12.648-3.762-15.93-8.926-15.93-12.686   c0-1.475-0.368-7.229,0.037-14.232c0.663-5.9,5.457-8.334,10.029-9.221c11.283-0.662,29.869-0.367,33.704-0.367h30.236   c17.366,0,25.811-0.959,30.015-5.162c7.007-7.521,5.161-24.041,5.161-32.449h-68.031c-60.951,0-90.524,22.049-89.566,58.188   c0.958,45.945,49.115,47.346,83.853,54.352c10.323,1.844,36.135,7.521,36.135,20.65c0,0.957,0.074,4.055-0.147,10.322   c-0.074,0.518-0.148,3.689-0.148,5.016c-0.258,7.67-7.151,7.67-12.61,8.334c-10.03,0.516-23.674,0-27.435,0h-40.708   c-17.848,0-26.732,0.959-30.974,5.236c-7.522,7.521-5.606,22.197-5.606,30.678h75.076c62.354,0,90.488-25.811,90.488-56.785   C999.999,456.849,925.515,455.593,896.421,447.115"></path>
	<path fill-rule="evenodd" clip-rule="evenodd" fill="#66318C" d="M121.923,529.933H91.41c-37.04,0-47.807-31.049-47.807-64.309   c0-5.678-0.719-21.756,1.363-37.242c3.541-14.234,17.774-17.479,25.554-18.143c1.549-0.074,3.098-0.074,4.646-0.146   c0.313,0,0.498,0.072,0.498,0.072v-0.072c10.416-0.297,20.687,0.146,24.244,0.146h23.434c17.828,0,26.254-1.4,30.974-6.121   c7.024-7.006,5.125-22.197,5.125-30.678H100.85C22.492,373.441,0,419.458,0,469.607s21.589,96.166,101.753,96.166h57.688   C159.441,526.835,157.101,529.933,121.923,529.933"></path>
	<g>
		<defs>
			<path id="SVGID_4_" d="M766.994,86.765c-24.447-0.369-128.027-3.541-180.572,59.993     c-52.545,63.459-33.408,181.475-33.408,181.475s119.472,20.208,182.823-32.522c63.348-52.711,59.882-156.289,59.403-180.774     c-0.444-24.41,5.345-33.518,5.345-33.518v-0.037C800.585,81.381,791.44,87.208,766.994,86.765"></path>
		</defs>
		<clipPath id="SVGID_5_">
			<use xlink:href="#SVGID_4_"></use>
		</clipPath>
		
			<linearGradient id="SVGID_6_" gradientUnits="userSpaceOnUse" x1="242.103" y1="771.2651" x2="279.866" y2="771.2651" gradientTransform="matrix(7.0891 -7.0891 -7.0891 -7.0891 4294.4761 7522.8369)">
			<stop offset="0" style="stop-color:#C41D8E"></stop>
			<stop offset="0.26" style="stop-color:#E4118B"></stop>
			<stop offset="1" style="stop-color:#E90E8B"></stop>
		</linearGradient>
		<polygon clip-path="url(#SVGID_5_)" fill="url(#SVGID_6_)" points="400.339,214.901 667.249,-51.993 934.143,214.901     667.249,481.849   "></polygon>
	</g>
	<g>
		<defs>
			<path id="SVGID_7_" d="M701.32,162.061c-16.15-0.294-84.662-2.36-119.342,39.639c-34.734,41.925-22.087,119.968-22.087,119.968     s78.966,13.349,120.854-21.534c41.888-34.827,39.602-103.301,39.233-119.452c-0.258-16.189,3.54-22.236,3.54-22.236     S717.547,162.282,701.32,162.061"></path>
		</defs>
		<clipPath id="SVGID_8_">
			<use xlink:href="#SVGID_7_"></use>
		</clipPath>
		
			<linearGradient id="SVGID_9_" gradientUnits="userSpaceOnUse" x1="293.771" y1="783.3267" x2="331.5345" y2="783.3267" gradientTransform="matrix(3.373 -3.373 -3.373 -3.373 2229.4333 3937.1199)">
			<stop offset="0" style="stop-color:#F37021"></stop>
			<stop offset="0.5" style="stop-color:#F99D1C"></stop>
			<stop offset="1" style="stop-color:#F99D1C"></stop>
		</linearGradient>
		<polygon clip-path="url(#SVGID_8_)" fill="url(#SVGID_9_)" points="458.95,246.76 635.392,70.318 811.833,246.76 635.392,423.22       "></polygon>
	</g>
	<path fill-rule="evenodd" clip-rule="evenodd" fill="#2E3790" d="M605.228,618.947c-1.77,3.688-12.169,30.162-12.169,30.162   l-11.56-30.828c0,0-1.233-2.801-3.355-2.875l-12.536,0.295l19.598,49.115l14.603,0.074l21.35-49.41l-11.432-0.148   C609.726,615.332,607.034,615.257,605.228,618.947"></path>
	<path fill-rule="evenodd" clip-rule="evenodd" fill="#2E3790" d="M628.753,615.406c0,0,0.074,38.35,0,43.66   c0,5.309,4.721,5.604,4.721,5.604h8.888l-0.074-49.264H628.753z"></path>
	<path fill-rule="evenodd" clip-rule="evenodd" fill="#2E3790" d="M685.613,615.48h-6.27v10.693h2.618   c11.21,0.369,8.961,8.775,8.961,8.775h-11.579v10.768h11.431c0,0,1.401,8.482-7.816,8.629h-3.614v10.84h7.893   c17.33-1.547,17.404-15.781,17.404-15.781v-14.455C705.082,613.783,685.613,615.48,685.613,615.48 M679.344,615.48h-21.978   c0,0-0.331,3.613,0.074,6.711c0.444,3.172,4.39,3.982,4.39,3.982h17.514V615.48z M679.344,634.949h-8.037   c-18.511-1.4-17.588,15.486-17.588,15.486c0.552,16.596,15.742,14.75,15.742,14.75h9.883v-10.84l-6.6-0.074   c0,0-5.09,0.59-4.867-4.498c0,0,0.184-4.131,3.944-4.057h7.522V634.949z"></path>
	<path fill-rule="evenodd" clip-rule="evenodd" fill="#2E3790" d="M733.954,615.406c0,0-20.832-0.221-20.354,24.559   c0,0,0.037,24.043,20.207,25.148h24.741v-6.195c0,0-0.884-4.205-5.421-4.424H739.67c0,0-12.315,0.146-11.835-14.529   c0,0-0.48-13.57,11.763-13.645h13.458c0,0,5.347-0.883,5.493-5.898v-5.016h-0.146H733.954z"></path>
	<path fill-rule="evenodd" clip-rule="evenodd" fill="#2E3790" d="M791.44,614.595l-0.886-0.074v10.25h0.297   c0,0,9.07-1.031,11.579,10.4c0,0,3.023,13.42-5.163,18.584c0,0-3.062,1.326-6.713,1.549v10.029   c7.818-0.221,14.346-2.582,14.346-2.582c17.439-8.48,11.025-30.898,11.025-30.898C810.616,612.9,791.44,614.595,791.44,614.595    M790.555,614.521l-1.289-0.072c-18.327,0.146-23.857,16.666-24.004,17.846h-0.074c-3.246,19.469,5.677,26.328,5.677,26.328   c5.384,5.531,13.055,6.932,19.69,6.711v-10.029c-3.17,0.146-6.856-0.664-9.438-4.057c0,0-4.241-4.057-2.657-15.781v-0.074   c0.113-0.664,2.657-10.621,11.357-10.695l0.737,0.074V614.521z"></path>
	<path fill-rule="evenodd" clip-rule="evenodd" fill="#2E3790" d="M878.5,615.48c-4.609,0.074-5.347,2.801-5.347,2.801   l-12.61,31.049l-10.693-28.613c-1.659-5.016-4.757-4.793-4.757-4.793h-19.581v49.189l8.962-0.074c4.276,0,4.865-4.424,4.865-4.424   v-29.428l13.386,33.852h14.86l14.271-33.852l-0.222,27.73c-0.111,5.826,4.756,6.121,4.756,6.121h8.997V615.48H878.5z"></path>
	<path fill-rule="evenodd" clip-rule="evenodd" fill="#ED2127" d="M914.231,598.076v82.449h82.302v-58.26   c0-13.35-10.769-24.189-24.115-24.189H914.231z"></path>
	<polygon fill-rule="evenodd" clip-rule="evenodd" fill="#FFFFFF" points="942.476,615.185 942.476,666.144 930.528,666.144    930.528,626.912 922.491,626.912 922.491,615.185  "></polygon>
	<path fill-rule="evenodd" clip-rule="evenodd" fill="#FFFFFF" d="M965.742,655.451c1.514,0,2.841-0.443,3.8-1.4   c1.327-0.959,1.99-2.508,1.99-4.498c0-1.697-0.516-3.098-1.623-4.205c-1.104-1.18-2.47-1.844-4.167-1.844v-8.924   c1.366,0,2.546-0.516,3.469-1.475c1.104-1.031,1.621-2.287,1.549-3.762c-0.074-1.77-0.628-3.098-1.697-3.906   c-0.921-0.74-2.064-1.107-3.32-1.107V614.3c4.904,0.074,8.813,1.475,11.911,4.35c2.876,2.654,4.351,5.9,4.351,9.662   c0,4.572-1.807,7.891-5.31,10.104c4.721,2.58,7.081,6.637,7.081,12.02c0,2.803-0.774,5.533-2.25,8.113   c-1.512,2.58-3.724,4.646-6.452,6.195c-2.765,1.475-5.862,2.287-9.331,2.287V655.451z M959.881,649.478   c-0.037-1.623,0.517-2.949,1.512-4.131c1.18-1.254,2.544-1.844,4.203-1.844h0.146v-8.924h-0.146   c-1.475-0.072-2.764-0.59-3.649-1.549c-0.923-0.957-1.328-2.213-1.328-3.834c0-1.328,0.517-2.434,1.477-3.318   c0.884-0.885,2.026-1.402,3.354-1.549h0.293V614.3h-0.293c-4.903,0-8.887,1.4-11.874,4.35c-2.986,2.951-4.461,6.195-4.461,9.957   c0.074,4.352,1.842,7.521,5.419,9.809c-2.249,1.328-4.019,3.098-5.124,5.309c-1.328,2.436-1.992,4.795-1.992,7.008   c0,4.203,1.697,7.965,5.088,11.283c3.246,3.244,7.596,4.941,13.091,5.016h0.146v-11.58h-0.146c-1.549,0-2.877-0.516-3.872-1.695   C960.618,652.576,960.027,651.175,959.881,649.478"></path>
</g>
</svg>