<svg xmlns="http://www.w3.org/2000/svg" xmlns:xlink="http://www.w3.org/1999/xlink" id="Layer_1" x="0px" y="0px" viewBox="0 0 100 100" style="enable-background:new 0 0 100 100;" xml:space="preserve">
<style type="text/css">
	.st0{fill-rule:evenodd;clip-rule:evenodd;fill:#DC2751;}
</style>
<g transform="matrix(1,0,0,1,-220,-0)">
	<g transform="matrix(0.510204,-6.12068e-17,-1.19965e-16,0.510204,78.6735,-51.5306)">
		<g transform="matrix(1.69615,2.0348e-16,3.9882e-16,1.69615,-82.9615,114.192)">
			<path class="st0" d="M320,102H220c-0.2,0-0.3,0-0.5-0.1c-0.6-0.2-1.1-0.6-1.3-1.2c-0.1-0.2-0.1-0.3-0.1-0.5c0-0.1,0-0.2,0-0.3V0     c0-0.1,0-0.2,0-0.3c0-0.2,0.1-0.3,0.1-0.5c0.2-0.6,0.7-1,1.3-1.2C219.7-2,219.8-2,220-2h100c0.1,0,0.2,0,0.3,0     c0.2,0,0.3,0,0.5,0.1c0.5,0.2,0.9,0.6,1.1,1.1c0.1,0.2,0.1,0.3,0.1,0.5c0,0.1,0,0.2,0,0.3v100c0,0.1,0,0.2,0,0.3     c0,0.2-0.1,0.3-0.1,0.5c-0.2,0.6-0.7,1-1.3,1.2C320.3,102,320.2,102,320,102z M318,2h-96v96h96V2z M309,76v-7     c0-0.1,0-0.3,0.1-0.4c0.1-0.3,0.4-0.5,0.7-0.6c0.1,0,0.2,0,0.3,0c0,0,0.1,0,0.1,0c0.1,0,0.2,0,0.3,0.1c0.3,0.1,0.5,0.4,0.5,0.6     c0,0.1,0,0.2,0,0.3v7c0.7,0,1.4,0,2,0c0.1,0,0.2,0,0.3,0.1c0.3,0.1,0.5,0.3,0.6,0.6c0,0.1,0,0.2,0.1,0.3c0,1.4,0,2.7,0,4.1     c0,0.1,0,0.2-0.1,0.3c-0.1,0.3-0.3,0.5-0.6,0.6c-0.1,0-0.2,0-0.3,0.1c-0.7,0-1.4,0-2,0v11c0,0.1,0,0.1,0,0.2     c0,0.2-0.2,0.4-0.3,0.6c-0.1,0.1-0.2,0.1-0.3,0.2c-0.1,0-0.2,0-0.3,0.1c-0.4,0-0.8-0.2-0.9-0.5c-0.1-0.1-0.1-0.2-0.1-0.4     c0,0,0-0.1,0-0.1V82c-0.7,0-1.4,0-2,0c-0.1,0-0.2,0-0.3-0.1c-0.3-0.1-0.5-0.3-0.6-0.6c0-0.1,0-0.2-0.1-0.3c0-1.4,0-2.7,0-4.1     c0-0.1,0-0.2,0.1-0.3c0.1-0.3,0.3-0.5,0.6-0.6c0.1,0,0.2,0,0.3-0.1C307.6,76,308.3,76,309,76z M299,81V69c0-0.1,0-0.2,0-0.3     c0.1-0.3,0.3-0.6,0.6-0.7c0.1,0,0.2-0.1,0.4-0.1c0,0,0.1,0,0.1,0c0.1,0,0.2,0,0.3,0.1c0.3,0.1,0.5,0.4,0.5,0.6c0,0.1,0,0.2,0,0.3     v12c0.7,0,1.4,0,2,0c0.1,0,0.2,0,0.3,0.1c0.3,0.1,0.5,0.3,0.6,0.6c0,0.1,0.1,0.2,0.1,0.3c0,1.4,0,2.7,0,4.1c0,0.1,0,0.2-0.1,0.3     c-0.1,0.3-0.3,0.5-0.6,0.6c-0.1,0-0.2,0.1-0.3,0.1c-0.7,0-1.4,0-2,0v6c0,0.1,0,0.1,0,0.2c0,0.2-0.2,0.4-0.3,0.6     c-0.1,0.1-0.2,0.1-0.3,0.2c-0.4,0.1-0.8,0-1.1-0.3c-0.1-0.1-0.1-0.1-0.2-0.2c-0.1-0.1-0.1-0.2-0.1-0.4c0,0,0-0.1,0-0.1v-6     c-0.7,0-1.4,0-2,0c-0.1,0-0.2,0-0.3-0.1c-0.3-0.1-0.5-0.3-0.6-0.6c0-0.1-0.1-0.2-0.1-0.3c0-1.4,0-2.7,0-4.1c0-0.1,0-0.2,0.1-0.3     c0.1-0.3,0.3-0.5,0.6-0.6c0.1,0,0.2,0,0.3-0.1C297.6,81,298.3,81,299,81z M229,71v-2c0-0.1,0-0.3,0.1-0.4     c0.1-0.3,0.4-0.5,0.7-0.6c0.1,0,0.2,0,0.3,0c0,0,0.1,0,0.1,0c0.1,0,0.2,0,0.3,0.1c0.3,0.1,0.5,0.4,0.5,0.6c0,0.1,0,0.2,0,0.3v2     c0.7,0,1.4,0,2,0c0.1,0,0.2,0,0.3,0.1c0.3,0.1,0.5,0.3,0.6,0.6c0,0.1,0.1,0.2,0.1,0.3c0,1.4,0,2.7,0,4.1c0,0.1,0,0.2-0.1,0.3     c-0.1,0.3-0.3,0.5-0.6,0.6c-0.1,0-0.2,0-0.3,0.1c-0.7,0-1.4,0-2,0v16c0,0,0,0.1,0,0.1c0,0.1,0,0.3-0.1,0.4c0,0.1-0.1,0.2-0.2,0.2     c-0.3,0.3-0.7,0.4-1.1,0.3c-0.1,0-0.2-0.1-0.3-0.2c-0.2-0.1-0.3-0.3-0.3-0.6c0-0.1,0-0.1,0-0.2V77c-0.7,0-1.4,0-2,0     c-0.1,0-0.2,0-0.3-0.1c-0.3-0.1-0.5-0.3-0.6-0.6c0-0.1,0-0.2-0.1-0.3c0-1.4,0-2.7,0-4.1c0-0.1,0-0.2,0.1-0.3     c0.1-0.3,0.3-0.5,0.6-0.6c0.1,0,0.2-0.1,0.3-0.1C227.6,71,228.3,71,229,71z M279,71v-2c0-0.1,0-0.3,0.1-0.4     c0.1-0.3,0.4-0.5,0.7-0.6c0.1,0,0.2,0,0.3,0c0,0,0.1,0,0.1,0c0.1,0,0.2,0,0.3,0.1c0.3,0.1,0.5,0.4,0.5,0.6c0,0.1,0,0.2,0,0.3v2     c0.7,0,1.4,0,2,0c0.1,0,0.2,0,0.3,0.1c0.3,0.1,0.5,0.3,0.6,0.6c0,0.1,0,0.2,0.1,0.3c0,1.4,0,2.7,0,4.1c0,0.1,0,0.2-0.1,0.3     c-0.1,0.3-0.3,0.5-0.6,0.6c-0.1,0-0.2,0-0.3,0.1c-0.7,0-1.4,0-2,0v16c0,0.1,0,0.1,0,0.2c0,0.2-0.2,0.4-0.3,0.6     c-0.1,0.1-0.2,0.1-0.2,0.2c-0.4,0.2-0.8,0.1-1.1-0.2c-0.1-0.1-0.2-0.2-0.2-0.3c-0.1-0.1-0.1-0.2-0.1-0.4c0,0,0-0.1,0-0.1V77     c-0.7,0-1.4,0-2,0c-0.1,0-0.2,0-0.3-0.1c-0.3-0.1-0.5-0.3-0.6-0.6c0-0.1-0.1-0.2-0.1-0.3c0-1.4,0-2.7,0-4.1c0-0.1,0-0.2,0.1-0.3     c0.1-0.3,0.3-0.5,0.6-0.6c0.1,0,0.2-0.1,0.3-0.1C277.6,71,278.3,71,279,71z M289,76v-7c0-0.1,0-0.3,0.1-0.4     c0.1-0.3,0.4-0.5,0.7-0.6c0.1,0,0.2,0,0.3,0c0,0,0.1,0,0.1,0c0.1,0,0.2,0,0.3,0.1c0.3,0.1,0.5,0.4,0.5,0.6c0,0.1,0,0.2,0,0.3v7     c0.7,0,1.4,0,2,0c0.1,0,0.2,0,0.3,0.1c0.3,0.1,0.5,0.3,0.6,0.6c0,0.1,0,0.2,0.1,0.3c0,1.4,0,2.7,0,4.1c0,0.1,0,0.2-0.1,0.3     c-0.1,0.3-0.3,0.5-0.6,0.6c-0.1,0-0.2,0.1-0.3,0.1c-0.7,0-1.4,0-2,0v11c0,0.1,0,0.1,0,0.2c0,0.2-0.2,0.4-0.3,0.6     c-0.1,0.1-0.2,0.1-0.2,0.2c-0.4,0.2-0.8,0.1-1.1-0.2c-0.1-0.1-0.2-0.2-0.2-0.3c-0.1-0.1-0.1-0.2-0.1-0.4c0,0,0-0.1,0-0.1V82     c-0.7,0-1.4,0-2,0c-0.1,0-0.2,0-0.3-0.1c-0.3-0.1-0.5-0.3-0.6-0.6c0-0.1,0-0.2-0.1-0.3c0-1.4,0-2.7,0-4.1c0-0.1,0-0.2,0.1-0.3     c0.1-0.3,0.3-0.5,0.6-0.6c0.1,0,0.2-0.1,0.3-0.1C287.6,76,288.3,76,289,76z M259,76v-7c0-0.1,0-0.3,0.1-0.4     c0.1-0.3,0.4-0.5,0.7-0.6c0.1,0,0.2,0,0.3,0c0,0,0.1,0,0.1,0c0.1,0,0.2,0,0.3,0.1c0.3,0.1,0.5,0.4,0.5,0.6c0,0.1,0,0.2,0,0.3v7     c0.7,0,1.4,0,2,0c0.1,0,0.2,0,0.3,0.1c0.3,0.1,0.5,0.3,0.6,0.6c0,0.1,0,0.2,0.1,0.3c0,1.4,0,2.7,0,4.1c0,0.1,0,0.2-0.1,0.3     c-0.1,0.3-0.3,0.5-0.6,0.6c-0.1,0-0.2,0-0.3,0.1c-0.7,0-1.4,0-2,0v11c0,0.1,0,0.1,0,0.2c0,0.2-0.2,0.4-0.3,0.6     c-0.3,0.3-0.7,0.3-1.1,0.2c-0.1,0-0.2-0.1-0.2-0.2c-0.1-0.1-0.2-0.2-0.2-0.3c-0.1-0.1-0.1-0.2-0.1-0.4c0,0,0-0.1,0-0.1V82     c-0.7,0-1.4,0-2,0c-0.1,0-0.2,0-0.3-0.1c-0.3-0.1-0.5-0.3-0.6-0.6c0-0.1-0.1-0.2-0.1-0.3c0-1.4,0-2.7,0-4.1c0-0.1,0-0.2,0.1-0.3     c0.1-0.3,0.3-0.5,0.6-0.6c0.1,0,0.2-0.1,0.3-0.1C257.6,76,258.3,76,259,76z M269,71v-2c0-0.1,0-0.2,0-0.3     c0.1-0.3,0.3-0.6,0.6-0.7c0.1,0,0.2-0.1,0.4-0.1c0,0,0.1,0,0.1,0c0.1,0,0.2,0,0.3,0.1c0.3,0.1,0.5,0.4,0.5,0.6c0,0.1,0,0.2,0,0.3     v2c0.7,0,1.4,0,2,0c0.1,0,0.2,0,0.3,0.1c0.3,0.1,0.5,0.3,0.6,0.6c0,0.1,0,0.2,0.1,0.3c0,1.4,0,2.7,0,4.1c0,0.1,0,0.2-0.1,0.3     c-0.1,0.3-0.3,0.5-0.6,0.6c-0.1,0-0.2,0.1-0.3,0.1c-0.7,0-1.4,0-2,0v16c0,0,0,0.1,0,0.1c0,0.1,0,0.3-0.1,0.4     c-0.1,0.1-0.1,0.2-0.2,0.3c-0.3,0.3-0.7,0.3-1.1,0.2c-0.1,0-0.2-0.1-0.2-0.2c-0.2-0.1-0.3-0.3-0.3-0.6c0-0.1,0-0.1,0-0.2V77     c-0.7,0-1.4,0-2,0c-0.1,0-0.2,0-0.3-0.1c-0.3-0.1-0.5-0.3-0.6-0.6c0-0.1,0-0.2-0.1-0.3c0-1.4,0-2.7,0-4.1c0-0.1,0-0.2,0.1-0.3     c0.1-0.3,0.3-0.5,0.6-0.6c0.1,0,0.2,0,0.3-0.1C267.6,71,268.3,71,269,71z M239,76v-7c0-0.1,0-0.3,0.1-0.4     c0.1-0.3,0.4-0.5,0.7-0.6c0.1,0,0.2,0,0.3,0c0,0,0.1,0,0.1,0c0.1,0,0.2,0,0.3,0.1c0.3,0.1,0.5,0.4,0.5,0.6c0,0.1,0,0.2,0,0.3v7     c0.7,0,1.4,0,2,0c0.1,0,0.2,0,0.3,0.1c0.3,0.1,0.5,0.3,0.6,0.6c0,0.1,0,0.2,0.1,0.3c0,1.4,0,2.7,0,4.1c0,0.1,0,0.2-0.1,0.3     c-0.1,0.3-0.3,0.5-0.6,0.6c-0.1,0-0.2,0-0.3,0.1c-0.7,0-1.4,0-2,0v11c0,0.1,0,0.1,0,0.2c0,0.2-0.2,0.4-0.3,0.6     c-0.1,0.1-0.2,0.1-0.2,0.2c-0.4,0.2-0.8,0.1-1.1-0.2c-0.1-0.1-0.2-0.2-0.2-0.3c-0.1-0.1-0.1-0.2-0.1-0.4c0,0,0-0.1,0-0.1V82     c-0.7,0-1.4,0-2,0c-0.1,0-0.2,0-0.3-0.1c-0.3-0.1-0.5-0.3-0.6-0.6c0-0.1-0.1-0.2-0.1-0.3c0-1.4,0-2.7,0-4.1c0-0.1,0-0.2,0.1-0.3     c0.1-0.3,0.3-0.5,0.6-0.6c0.1,0,0.2-0.1,0.3-0.1C237.6,76,238.3,76,239,76z M249,81V69c0-0.1,0-0.3,0.1-0.4     c0.1-0.3,0.4-0.5,0.7-0.6c0.1,0,0.2,0,0.3,0c0,0,0.1,0,0.1,0c0.1,0,0.2,0,0.3,0.1c0.3,0.1,0.5,0.4,0.5,0.6c0,0.1,0,0.2,0,0.3v12     c0.7,0,1.4,0,2,0c0.1,0,0.2,0,0.3,0.1c0.3,0.1,0.5,0.3,0.6,0.6c0,0.1,0,0.2,0.1,0.3c0,1.4,0,2.7,0,4.1c0,0.1,0,0.2-0.1,0.3     c-0.1,0.3-0.3,0.5-0.6,0.6c-0.1,0-0.2,0-0.3,0.1c-0.7,0-1.4,0-2,0v6c0,0,0,0.1,0,0.1c0,0.1,0,0.3-0.1,0.4     c-0.1,0.1-0.1,0.2-0.2,0.3c-0.1,0.1-0.2,0.1-0.2,0.2c-0.4,0.2-0.8,0.1-1.1-0.2c-0.2-0.1-0.3-0.3-0.3-0.6c0-0.1,0-0.1,0-0.2v-6     c-0.7,0-1.4,0-2,0c-0.1,0-0.2,0-0.3-0.1c-0.3-0.1-0.5-0.3-0.6-0.6c0-0.1,0-0.2-0.1-0.3c0-1.4,0-2.7,0-4.1c0-0.1,0-0.2,0.1-0.3     c0.1-0.3,0.3-0.5,0.6-0.6c0.1,0,0.2,0,0.3-0.1C247.6,81,248.3,81,249,81z M252,85v-2h-4l0,0l0,0v2l0,0H252z M302,85v-2h-4v2H302z      M292,78L292,78h-4v2h4V78L292,78z M242,80v-2h-4v2H242z M262,78L262,78L262,78h-4v2h4V78z M312,80v-2h-4l0,0l0,0v2H312z M232,73     h-4v2h4l0,0l0,0V73z M282,75v-2h-4l0,0v2l0,0H282z M272,75v-2h-4v2H272z M252,56c0.1,0,0.2,0,0.3,0.1c0.3,0.1,0.5,0.3,0.6,0.6     c0,0.1,0,0.2,0.1,0.3c0,1.4,0,2.7,0,4.1c0,0.1,0,0.2-0.1,0.3c-0.1,0.3-0.3,0.5-0.6,0.6c-0.1,0-0.2,0.1-0.3,0.1c-2,0-4.1,0-6.1,0     c-0.1,0-0.2,0-0.3-0.1c-0.3-0.1-0.5-0.3-0.6-0.6c0-0.1-0.1-0.2-0.1-0.3c0-1.4,0-2.7,0-4.1c0-0.1,0-0.2,0.1-0.3     c0.1-0.3,0.3-0.5,0.6-0.6c0.1,0,0.2,0,0.3-0.1C248,56,250,56,252,56z M262,56c0.1,0,0.2,0,0.3,0.1c0.3,0.1,0.5,0.3,0.6,0.6     c0,0.1,0,0.2,0.1,0.3c0,1.4,0,2.7,0,4.1c0,0.1,0,0.2-0.1,0.3c-0.1,0.3-0.3,0.5-0.6,0.6c-0.1,0-0.2,0.1-0.3,0.1c-2,0-4.1,0-6.1,0     c-0.1,0-0.2,0-0.3-0.1c-0.3-0.1-0.5-0.3-0.6-0.6c0-0.1-0.1-0.2-0.1-0.3c0-1.4,0-2.7,0-4.1c0-0.1,0-0.2,0.1-0.3     c0.1-0.3,0.3-0.5,0.6-0.6c0.1,0,0.2-0.1,0.3-0.1C258,56,260,56,262,56z M232,56c0.1,0,0.2,0,0.3,0.1c0.3,0.1,0.5,0.3,0.6,0.6     c0,0.1,0,0.2,0.1,0.3c0,1.4,0,2.7,0,4.1c0,0.1,0,0.2-0.1,0.3c-0.1,0.3-0.3,0.5-0.6,0.6c-0.1,0-0.2,0.1-0.3,0.1c-2,0-4.1,0-6.1,0     c-0.1,0-0.2,0-0.3-0.1c-0.3-0.1-0.5-0.3-0.6-0.6c0-0.1,0-0.2-0.1-0.3c0-1.4,0-2.7,0-4.1c0-0.1,0-0.2,0.1-0.3     c0.1-0.3,0.3-0.5,0.6-0.6c0.1,0,0.2-0.1,0.3-0.1C228,56,230,56,232,56z M242,56c0.1,0,0.2,0,0.3,0.1c0.3,0.1,0.5,0.3,0.6,0.6     c0,0.1,0,0.2,0.1,0.3c0,1.4,0,2.7,0,4.1c0,0.1,0,0.2-0.1,0.3c-0.1,0.3-0.3,0.5-0.6,0.6c-0.1,0-0.2,0-0.3,0.1c-2,0-4.1,0-6.1,0     c-0.1,0-0.2,0-0.3-0.1c-0.3-0.1-0.5-0.3-0.6-0.6c0-0.1,0-0.2-0.1-0.3c0-1.4,0-2.7,0-4.1c0-0.1,0-0.2,0.1-0.3     c0.1-0.3,0.3-0.5,0.6-0.6c0.1,0,0.2-0.1,0.3-0.1C238,56,240,56,242,56z M272,56c0.1,0,0.2,0,0.3,0.1c0.3,0.1,0.5,0.3,0.6,0.6     c0,0.1,0.1,0.2,0.1,0.3c0,1.4,0,2.7,0,4.1c0,0.1,0,0.2-0.1,0.3c-0.1,0.3-0.3,0.5-0.6,0.6c-0.1,0-0.2,0.1-0.3,0.1     c-2,0-4.1,0-6.1,0c-0.1,0-0.2,0-0.3-0.1c-0.3-0.1-0.5-0.3-0.6-0.6c0-0.1-0.1-0.2-0.1-0.3c0-1.4,0-2.7,0-4.1c0-0.1,0-0.2,0.1-0.3     c0.1-0.3,0.3-0.5,0.6-0.6c0.1,0,0.2,0,0.3-0.1C268,56,270,56,272,56z M306,56c0.1,0,0.2,0,0.3,0.1c0.3,0.1,0.5,0.3,0.6,0.6     c0,0.1,0.1,0.2,0.1,0.3c0,1.4,0,2.7,0,4.1c0,0.1,0,0.2-0.1,0.3c-0.1,0.3-0.3,0.5-0.6,0.6c-0.1,0-0.2,0.1-0.3,0.1     c-1.4,0-2.7,0-4.1,0c-0.1,0-0.2,0-0.3-0.1c-0.3-0.1-0.5-0.3-0.6-0.6c0-0.1-0.1-0.2-0.1-0.3c0-1.4,0-2.7,0-4.1     c0-0.1,0-0.2,0.1-0.3c0.1-0.3,0.3-0.5,0.6-0.6c0.1,0,0.2-0.1,0.3-0.1C303.3,56,304.7,56,306,56z M282,56c0.1,0,0.2,0,0.3,0.1     c0.3,0.1,0.5,0.3,0.6,0.6c0,0.1,0.1,0.2,0.1,0.3c0,1.4,0,2.7,0,4.1c0,0.1,0,0.2-0.1,0.3c-0.1,0.3-0.3,0.5-0.6,0.6     c-0.1,0-0.2,0.1-0.3,0.1c-1.4,0-2.7,0-4.1,0c-0.1,0-0.2,0-0.3-0.1c-0.3-0.1-0.5-0.3-0.6-0.6c0-0.1-0.1-0.2-0.1-0.3     c0-1.4,0-2.7,0-4.1c0-0.1,0-0.2,0.1-0.3c0.1-0.3,0.3-0.5,0.6-0.6c0.1,0,0.2-0.1,0.3-0.1C279.3,56,280.7,56,282,56z M290,56     c0.1,0,0.2,0,0.3,0.1c0.3,0.1,0.5,0.3,0.6,0.6c0,0.1,0.1,0.2,0.1,0.3c0,1.4,0,2.7,0,4.1c0,0.1,0,0.2-0.1,0.3     c-0.1,0.3-0.3,0.5-0.6,0.6c-0.1,0-0.2,0.1-0.3,0.1c-1.4,0-2.7,0-4.1,0c-0.1,0-0.2,0-0.3-0.1c-0.3-0.1-0.5-0.3-0.6-0.6     c0-0.1-0.1-0.2-0.1-0.3c0-1.4,0-2.7,0-4.1c0-0.1,0-0.2,0.1-0.3c0.1-0.3,0.3-0.5,0.6-0.6c0.1,0,0.2-0.1,0.3-0.1     C287.3,56,288.7,56,290,56z M314,56c0.1,0,0.2,0,0.3,0.1c0.3,0.1,0.5,0.3,0.6,0.6c0,0.1,0.1,0.2,0.1,0.3c0,1.4,0,2.7,0,4.1     c0,0.1,0,0.2-0.1,0.3c-0.1,0.3-0.3,0.5-0.6,0.6c-0.1,0-0.2,0.1-0.3,0.1c-1.4,0-2.7,0-4.1,0c-0.1,0-0.2,0-0.3-0.1     c-0.3-0.1-0.5-0.3-0.6-0.6c0-0.1-0.1-0.2-0.1-0.3c0-1.4,0-2.7,0-4.1c0-0.1,0-0.2,0.1-0.3c0.1-0.3,0.3-0.5,0.6-0.6     c0.1,0,0.2-0.1,0.3-0.1C311.3,56,312.7,56,314,56z M298,56c0.1,0,0.2,0,0.3,0.1c0.3,0.1,0.5,0.3,0.6,0.6c0,0.1,0.1,0.2,0.1,0.3     c0,1.4,0,2.7,0,4.1c0,0.1,0,0.2-0.1,0.3c-0.1,0.3-0.3,0.5-0.6,0.6c-0.1,0-0.2,0.1-0.3,0.1c-1.4,0-2.7,0-4.1,0     c-0.1,0-0.2,0-0.3-0.1c-0.3-0.1-0.5-0.3-0.6-0.6c0-0.1-0.1-0.2-0.1-0.3c0-1.4,0-2.7,0-4.1c0-0.1,0-0.2,0.1-0.3     c0.1-0.3,0.3-0.5,0.6-0.6c0.1,0,0.2-0.1,0.3-0.1C295.3,56,296.7,56,298,56z M313,58h-2v2h2V58z M297,58h-2v2h2V58z M289,58h-2v2     h2V58z M305,58h-2v2h2V58z M281,58h-2v2h2V58z M271,58h-4v2h4V58z M251,58h-4v2h4V58z M231,58h-4v2h4V58z M261,58h-4v2h4V58z      M241,58h-4v2h4V58z M290,48c0.1,0,0.2,0,0.3,0.1c0.3,0.1,0.5,0.3,0.6,0.6c0,0.1,0.1,0.2,0.1,0.3c0,1.4,0,2.7,0,4.1     c0,0.1,0,0.2-0.1,0.3c-0.1,0.3-0.3,0.5-0.6,0.6c-0.1,0-0.2,0.1-0.3,0.1c-1.4,0-2.7,0-4.1,0c-0.1,0-0.2,0-0.3-0.1     c-0.3-0.1-0.5-0.3-0.6-0.6c0-0.1-0.1-0.2-0.1-0.3c0-1.4,0-2.7,0-4.1c0-0.1,0-0.2,0.1-0.3c0.1-0.3,0.3-0.5,0.6-0.6     c0.1,0,0.2-0.1,0.3-0.1C287.3,48,288.7,48,290,48z M282,48c0.1,0,0.2,0,0.3,0.1c0.3,0.1,0.5,0.3,0.6,0.6c0,0.1,0.1,0.2,0.1,0.3     c0,1.4,0,2.7,0,4.1c0,0.1,0,0.2-0.1,0.3c-0.1,0.3-0.3,0.5-0.6,0.6c-0.1,0-0.2,0.1-0.3,0.1c-1.4,0-2.7,0-4.1,0     c-0.1,0-0.2,0-0.3-0.1c-0.3-0.1-0.5-0.3-0.6-0.6c0-0.1-0.1-0.2-0.1-0.3c0-1.4,0-2.7,0-4.1c0-0.1,0-0.2,0.1-0.3     c0.1-0.3,0.3-0.5,0.6-0.6c0.1,0,0.2-0.1,0.3-0.1C279.3,48,280.7,48,282,48z M306,48c0.1,0,0.2,0,0.3,0.1c0.3,0.1,0.5,0.3,0.6,0.6     c0,0.1,0.1,0.2,0.1,0.3c0,1.4,0,2.7,0,4.1c0,0.1,0,0.2-0.1,0.3c-0.1,0.3-0.3,0.5-0.6,0.6c-0.1,0-0.2,0.1-0.3,0.1     c-1.4,0-2.7,0-4.1,0c-0.1,0-0.2,0-0.3-0.1c-0.3-0.1-0.5-0.3-0.6-0.6c0-0.1-0.1-0.2-0.1-0.3c0-1.4,0-2.7,0-4.1     c0-0.1,0-0.2,0.1-0.3c0.1-0.3,0.3-0.5,0.6-0.6c0.1,0,0.2-0.1,0.3-0.1C303.3,48,304.7,48,306,48z M298,48c0.1,0,0.2,0,0.3,0.1     c0.3,0.1,0.5,0.3,0.6,0.6c0,0.1,0.1,0.2,0.1,0.3c0,1.4,0,2.7,0,4.1c0,0.1,0,0.2-0.1,0.3c-0.1,0.3-0.3,0.5-0.6,0.6     c-0.1,0-0.2,0.1-0.3,0.1c-1.4,0-2.7,0-4.1,0c-0.1,0-0.2,0-0.3-0.1c-0.3-0.1-0.5-0.3-0.6-0.6c0-0.1-0.1-0.2-0.1-0.3     c0-1.4,0-2.7,0-4.1c0-0.1,0-0.2,0.1-0.3c0.1-0.3,0.3-0.5,0.6-0.6c0.1,0,0.2-0.1,0.3-0.1C295.3,48,296.7,48,298,48z M314,48     c0.1,0,0.2,0,0.3,0.1c0.3,0.1,0.5,0.3,0.6,0.6c0,0.1,0.1,0.2,0.1,0.3c0,1.4,0,2.7,0,4.1c0,0.1,0,0.2-0.1,0.3     c-0.1,0.3-0.3,0.5-0.6,0.6c-0.1,0-0.2,0.1-0.3,0.1c-1.4,0-2.7,0-4.1,0c-0.1,0-0.2,0-0.3-0.1c-0.3-0.1-0.5-0.3-0.6-0.6     c0-0.1-0.1-0.2-0.1-0.3c0-1.4,0-2.7,0-4.1c0-0.1,0-0.2,0.1-0.3c0.1-0.3,0.3-0.5,0.6-0.6c0.1,0,0.2-0.1,0.3-0.1     C311.3,48,312.7,48,314,48z M239.1,45c0.2,0,0.3,0,0.5,0c0.4,0.1,0.8,0.2,1.2,0.4c0.8,0.4,1.4,1,1.8,1.8c0.2,0.4,0.3,0.7,0.3,1.1     c0.1,0.4,0.1,0.8,0,1.2c-0.1,0.4-0.2,0.8-0.3,1.1c-0.2,0.4-0.5,0.8-0.8,1.2c-0.3,0.3-0.8,0.6-1.2,0.8c-0.5,0.2-1,0.3-1.6,0.3     s-1.1-0.1-1.6-0.3c-0.4-0.2-0.9-0.5-1.2-0.8c-0.3-0.3-0.6-0.7-0.8-1.2c-0.2-0.4-0.3-0.7-0.3-1.1c-0.1-0.4-0.1-0.8,0-1.2     c0.1-0.4,0.2-0.8,0.3-1.1c0.4-0.8,1-1.4,1.8-1.8c0.4-0.2,0.8-0.3,1.2-0.4c0.2,0,0.3,0,0.5,0C239,45,239,45,239.1,45z M249.1,45     c0.2,0,0.3,0,0.5,0c0.4,0.1,0.8,0.2,1.2,0.4c0.8,0.4,1.4,1,1.8,1.8c0.2,0.4,0.3,0.7,0.3,1.1c0.1,0.4,0.1,0.8,0,1.2     c-0.1,0.4-0.2,0.8-0.3,1.1c-0.2,0.4-0.5,0.8-0.8,1.2c-0.3,0.3-0.8,0.6-1.2,0.8c-0.5,0.2-1,0.3-1.6,0.3s-1.1-0.1-1.6-0.3     c-0.4-0.2-0.9-0.5-1.2-0.8c-0.3-0.3-0.6-0.7-0.8-1.2c-0.2-0.4-0.3-0.7-0.3-1.1c-0.1-0.4-0.1-0.8,0-1.2c0.1-0.4,0.2-0.8,0.3-1.1     c0.4-0.8,1-1.4,1.8-1.8c0.4-0.2,0.8-0.3,1.2-0.4c0.2,0,0.3,0,0.5,0C249,45,249,45,249.1,45z M259.1,45c0.2,0,0.3,0,0.5,0     c0.4,0.1,0.8,0.2,1.2,0.4c0.8,0.4,1.4,1,1.8,1.8c0.2,0.4,0.3,0.7,0.3,1.1c0.1,0.4,0.1,0.8,0,1.2c-0.1,0.4-0.2,0.8-0.3,1.1     c-0.2,0.4-0.5,0.8-0.8,1.2c-0.4,0.3-0.8,0.6-1.2,0.8c-0.5,0.2-1,0.3-1.6,0.3s-1.1-0.1-1.6-0.3c-0.4-0.2-0.9-0.5-1.2-0.8     c-0.3-0.3-0.6-0.7-0.8-1.2c-0.2-0.4-0.3-0.7-0.3-1.1c-0.1-0.4-0.1-0.8,0-1.2c0.1-0.4,0.2-0.8,0.3-1.1c0.4-0.8,1-1.4,1.8-1.8     c0.4-0.2,0.8-0.3,1.2-0.4c0.2,0,0.3,0,0.5,0C259,45,259,45,259.1,45z M269.1,45c0.2,0,0.3,0,0.5,0c0.4,0.1,0.8,0.2,1.2,0.4     c0.8,0.4,1.4,1,1.8,1.8c0.2,0.4,0.3,0.7,0.3,1.1c0.1,0.4,0.1,0.8,0,1.2c-0.1,0.4-0.2,0.8-0.3,1.1c-0.2,0.4-0.5,0.8-0.8,1.2     c-0.3,0.3-0.8,0.6-1.2,0.8c-0.5,0.2-1,0.3-1.6,0.3s-1.1-0.1-1.6-0.3c-0.4-0.2-0.9-0.5-1.2-0.8c-0.3-0.3-0.6-0.7-0.8-1.2     c-0.2-0.4-0.3-0.7-0.3-1.1c-0.1-0.4-0.1-0.8,0-1.2c0.1-0.4,0.2-0.8,0.3-1.1c0.4-0.8,1-1.4,1.8-1.8c0.4-0.2,0.8-0.3,1.2-0.4     c0.2,0,0.3,0,0.5,0C269,45,269,45,269.1,45z M229.1,45c0.2,0,0.3,0,0.5,0c0.4,0.1,0.8,0.2,1.2,0.4c0.8,0.4,1.4,1,1.8,1.8     c0.2,0.4,0.3,0.7,0.3,1.1c0.1,0.4,0.1,0.8,0,1.2c-0.1,0.4-0.2,0.8-0.3,1.1c-0.2,0.4-0.5,0.8-0.8,1.2c-0.3,0.3-0.8,0.6-1.2,0.8     c-0.5,0.2-1,0.3-1.6,0.3s-1.1-0.1-1.6-0.3c-0.4-0.2-0.9-0.5-1.2-0.8c-0.3-0.3-0.6-0.7-0.8-1.2c-0.2-0.4-0.3-0.7-0.3-1.1     c-0.1-0.4-0.1-0.8,0-1.2c0.1-0.4,0.2-0.8,0.3-1.1c0.4-0.8,1-1.4,1.8-1.8c0.4-0.2,0.8-0.3,1.2-0.4c0.2,0,0.3,0,0.5,0     C229,45,229,45,229.1,45z M313,50h-2v2h2V50z M289,50h-2v2h2V50z M305,50h-2v2h2V50z M297,50h-2v2h2V50z M281,50h-2v2h2V50z      M240.7,50c0,0,0-0.1,0.1-0.1c0.1-0.2,0.1-0.4,0.2-0.6c0-0.2,0-0.5,0-0.7c-0.1-0.6-0.5-1.1-1.1-1.4c-0.3-0.1-0.6-0.2-0.9-0.2     c-0.1,0-0.1,0-0.1,0c-0.3,0-0.6,0.1-0.9,0.2c-0.5,0.3-0.9,0.8-1.1,1.4c0,0.2-0.1,0.5,0,0.7c0,0.2,0.1,0.4,0.2,0.6     c0.1,0.2,0.2,0.4,0.4,0.6c0.2,0.2,0.4,0.3,0.6,0.4c0.2,0.1,0.5,0.2,0.8,0.2s0.5-0.1,0.8-0.2c0.1,0,0.1-0.1,0.2-0.1     c-0.5-0.5-0.9-0.9-1.4-1.4c0-0.1-0.1-0.1-0.1-0.2c-0.1-0.2,0-0.5,0.3-0.6c0.1,0,0.1-0.1,0.2-0.1c0,0,0,0,0,0     c0.1,0,0.2,0.1,0.3,0.1C239.8,49.1,240.3,49.5,240.7,50z M258,50.7c0.1,0,0.1,0.1,0.2,0.1c0.2,0.1,0.5,0.2,0.8,0.2     c0.3,0,0.5,0,0.8-0.1c0.2-0.1,0.4-0.2,0.6-0.4c0.2-0.2,0.3-0.4,0.4-0.6c0.1-0.2,0.2-0.4,0.2-0.6c0-0.2,0-0.4,0-0.7     c-0.1-0.6-0.5-1.2-1-1.5c-0.3-0.1-0.6-0.2-0.8-0.2c-0.1,0-0.1,0-0.2,0c-0.3,0-0.6,0.1-0.9,0.2c-0.5,0.3-0.9,0.8-1,1.3     c-0.1,0.2-0.1,0.5,0,0.7c0,0.2,0.1,0.4,0.2,0.6c0,0.1,0.1,0.1,0.1,0.2c0.5-0.5,0.9-0.9,1.4-1.4c0.1-0.1,0.2-0.1,0.3-0.1     c0,0,0,0,0.1,0c0.1,0,0.1,0,0.2,0.1c0.2,0.1,0.3,0.3,0.3,0.6c0,0.1-0.1,0.1-0.1,0.2C258.9,49.8,258.5,50.3,258,50.7z M249.5,50.9     c0.1,0,0.1,0,0.2-0.1c0.2-0.1,0.4-0.2,0.6-0.4c0.2-0.2,0.3-0.4,0.4-0.6c0.1-0.2,0.2-0.4,0.2-0.6c0-0.2,0-0.4,0-0.7     c-0.1-0.6-0.5-1.2-1-1.5c-0.3-0.1-0.6-0.2-0.8-0.2c-0.1,0-0.1,0-0.2,0c-0.3,0-0.6,0.1-0.9,0.2c-0.5,0.3-0.9,0.8-1,1.3     c-0.1,0.2-0.1,0.5,0,0.7c0,0.2,0.1,0.4,0.2,0.6c0.1,0.2,0.2,0.4,0.4,0.6c0.2,0.2,0.4,0.3,0.6,0.4c0.1,0,0.2,0.1,0.3,0.1     c0-0.7,0-1.3,0-2c0-0.1,0-0.1,0-0.2c0.1-0.2,0.2-0.3,0.4-0.3c0,0,0,0,0.1,0c0.2,0,0.4,0.1,0.4,0.3c0,0.1,0,0.1,0,0.2     C249.5,49.6,249.5,50.3,249.5,50.9z M229.5,50.9c0.1,0,0.1,0,0.2-0.1c0.2-0.1,0.4-0.2,0.6-0.4c0.2-0.2,0.3-0.4,0.4-0.6     c0.1-0.2,0.2-0.4,0.2-0.6c0-0.2,0-0.4,0-0.7c-0.1-0.6-0.5-1.2-1-1.5c-0.3-0.1-0.6-0.2-0.8-0.2c-0.1,0-0.1,0-0.2,0     c-0.3,0-0.6,0.1-0.9,0.2c-0.5,0.3-0.9,0.8-1,1.3c-0.1,0.2-0.1,0.5,0,0.7c0,0.2,0.1,0.4,0.2,0.6c0.1,0.2,0.2,0.4,0.4,0.6     c0.2,0.2,0.4,0.3,0.6,0.4c0.1,0,0.2,0.1,0.3,0.1c0-0.7,0-1.3,0-2c0-0.2,0.1-0.4,0.3-0.4c0.1,0,0.1,0,0.2,0c0,0,0,0,0.1,0     c0.2,0,0.4,0.1,0.4,0.3c0,0.1,0,0.1,0,0.2C229.5,49.6,229.5,50.3,229.5,50.9z M269.5,50.9c0.1,0,0.2-0.1,0.3-0.1     c0.2-0.1,0.4-0.2,0.6-0.4c0.2-0.2,0.3-0.4,0.4-0.6c0.1-0.2,0.1-0.4,0.2-0.6c0-0.2,0-0.5,0-0.7c-0.1-0.6-0.5-1.1-1.1-1.4     c-0.3-0.1-0.6-0.2-0.9-0.2c-0.1,0-0.1,0-0.1,0c-0.3,0-0.6,0.1-0.9,0.2c-0.5,0.3-0.9,0.8-1.1,1.4c0,0.2-0.1,0.5,0,0.7     c0,0.2,0.1,0.4,0.2,0.6c0.1,0.2,0.2,0.4,0.4,0.6c0.2,0.2,0.4,0.3,0.6,0.4c0.1,0,0.2,0.1,0.3,0.1c0-0.7,0-1.3,0-2     c0-0.1,0-0.1,0-0.2c0.1-0.2,0.2-0.3,0.4-0.3c0,0,0,0,0.1,0c0.2,0,0.4,0.1,0.4,0.3c0,0.1,0,0.1,0,0.2     C269.5,49.6,269.5,50.3,269.5,50.9z M306,40c0.1,0,0.2,0,0.3,0.1c0.3,0.1,0.5,0.3,0.6,0.6c0,0.1,0.1,0.2,0.1,0.3     c0,1.4,0,2.7,0,4.1c0,0.1,0,0.2-0.1,0.3c-0.1,0.3-0.3,0.5-0.6,0.6c-0.1,0-0.2,0.1-0.3,0.1c-1.4,0-2.7,0-4.1,0     c-0.1,0-0.2,0-0.3-0.1c-0.3-0.1-0.5-0.3-0.6-0.6c0-0.1-0.1-0.2-0.1-0.3c0-1.4,0-2.7,0-4.1c0-0.1,0-0.2,0.1-0.3     c0.1-0.3,0.3-0.5,0.6-0.6c0.1,0,0.2-0.1,0.3-0.1C303.3,40,304.7,40,306,40z M290,40c0.1,0,0.2,0,0.3,0.1c0.3,0.1,0.5,0.3,0.6,0.6     c0,0.1,0.1,0.2,0.1,0.3c0,1.4,0,2.7,0,4.1c0,0.1,0,0.2-0.1,0.3c-0.1,0.3-0.3,0.5-0.6,0.6c-0.1,0-0.2,0.1-0.3,0.1     c-1.4,0-2.7,0-4.1,0c-0.1,0-0.2,0-0.3-0.1c-0.3-0.1-0.5-0.3-0.6-0.6c0-0.1-0.1-0.2-0.1-0.3c0-1.4,0-2.7,0-4.1     c0-0.1,0-0.2,0.1-0.3c0.1-0.3,0.3-0.5,0.6-0.6c0.1,0,0.2-0.1,0.3-0.1C287.3,40,288.7,40,290,40z M314,40c0.1,0,0.2,0,0.3,0.1     c0.3,0.1,0.5,0.3,0.6,0.6c0,0.1,0.1,0.2,0.1,0.3c0,1.4,0,2.7,0,4.1c0,0.1,0,0.2-0.1,0.3c-0.1,0.3-0.3,0.5-0.6,0.6     c-0.1,0-0.2,0.1-0.3,0.1c-1.4,0-2.7,0-4.1,0c-0.1,0-0.2,0-0.3-0.1c-0.3-0.1-0.5-0.3-0.6-0.6c0-0.1-0.1-0.2-0.1-0.3     c0-1.4,0-2.7,0-4.1c0-0.1,0-0.2,0.1-0.3c0.1-0.3,0.3-0.5,0.6-0.6c0.1,0,0.2-0.1,0.3-0.1C311.3,40,312.7,40,314,40z M298,40     c0.1,0,0.2,0,0.3,0.1c0.3,0.1,0.5,0.3,0.6,0.6c0,0.1,0.1,0.2,0.1,0.3c0,1.4,0,2.7,0,4.1c0,0.1,0,0.2-0.1,0.3     c-0.1,0.3-0.3,0.5-0.6,0.6c-0.1,0-0.2,0.1-0.3,0.1c-1.4,0-2.7,0-4.1,0c-0.1,0-0.2,0-0.3-0.1c-0.3-0.1-0.5-0.3-0.6-0.6     c0-0.1-0.1-0.2-0.1-0.3c0-1.4,0-2.7,0-4.1c0-0.1,0-0.2,0.1-0.3c0.1-0.3,0.3-0.5,0.6-0.6c0.1,0,0.2-0.1,0.3-0.1     C295.3,40,296.7,40,298,40z M282,40c0.1,0,0.2,0,0.3,0.1c0.3,0.1,0.5,0.3,0.6,0.6c0,0.1,0.1,0.2,0.1,0.3c0,1.4,0,2.7,0,4.1     c0,0.1,0,0.2-0.1,0.3c-0.1,0.3-0.3,0.5-0.6,0.6c-0.1,0-0.2,0.1-0.3,0.1c-1.4,0-2.7,0-4.1,0c-0.1,0-0.2,0-0.3-0.1     c-0.3-0.1-0.5-0.3-0.6-0.6c0-0.1-0.1-0.2-0.1-0.3c0-1.4,0-2.7,0-4.1c0-0.1,0-0.2,0.1-0.3c0.1-0.3,0.3-0.5,0.6-0.6     c0.1,0,0.2-0.1,0.3-0.1C279.3,40,280.7,40,282,40z M313,42h-2v2h2V42z M305,42h-2v2h2V42z M297,42h-2v2h2V42z M289,42h-2v2h2V42z      M281,42h-2v2h2V42z M269.1,35c0.2,0,0.3,0,0.5,0c0.4,0.1,0.8,0.2,1.2,0.4c0.8,0.4,1.4,1,1.8,1.8c0.2,0.4,0.3,0.7,0.3,1.1     c0.1,0.4,0.1,0.8,0,1.2c-0.1,0.4-0.2,0.8-0.3,1.1c-0.2,0.4-0.5,0.8-0.8,1.2c-0.3,0.3-0.8,0.6-1.2,0.8c-0.5,0.2-1,0.3-1.6,0.3     s-1.1-0.1-1.6-0.3c-0.4-0.2-0.9-0.5-1.2-0.8c-0.3-0.3-0.6-0.7-0.8-1.2c-0.2-0.4-0.3-0.7-0.3-1.1c-0.1-0.4-0.1-0.8,0-1.2     c0.1-0.4,0.2-0.8,0.3-1.1c0.4-0.8,1-1.4,1.8-1.8c0.4-0.2,0.8-0.3,1.2-0.4c0.2,0,0.3,0,0.5,0C269,35,269,35,269.1,35z M229.1,35     c0.2,0,0.3,0,0.5,0c0.4,0.1,0.8,0.2,1.2,0.4c0.8,0.4,1.4,1,1.8,1.8c0.2,0.4,0.3,0.7,0.3,1.1c0.1,0.4,0.1,0.8,0,1.2     c-0.1,0.4-0.2,0.8-0.3,1.1c-0.2,0.4-0.5,0.8-0.8,1.2c-0.3,0.3-0.8,0.6-1.2,0.8c-0.5,0.2-1,0.3-1.6,0.3s-1.1-0.1-1.6-0.3     c-0.4-0.2-0.9-0.5-1.2-0.8c-0.3-0.3-0.6-0.7-0.8-1.2c-0.2-0.4-0.3-0.7-0.3-1.1c-0.1-0.4-0.1-0.8,0-1.2c0.1-0.4,0.2-0.8,0.3-1.1     c0.4-0.8,1-1.4,1.8-1.8c0.4-0.2,0.8-0.3,1.2-0.4c0.2,0,0.3,0,0.5,0C229,35,229,35,229.1,35z M239.1,35c0.2,0,0.3,0,0.5,0     c0.4,0.1,0.8,0.2,1.2,0.4c0.8,0.4,1.4,1,1.8,1.8c0.2,0.4,0.3,0.7,0.3,1.1c0.1,0.4,0.1,0.8,0,1.2c-0.1,0.4-0.2,0.8-0.3,1.1     c-0.2,0.4-0.5,0.8-0.8,1.2c-0.3,0.3-0.8,0.6-1.2,0.8c-0.5,0.2-1,0.3-1.6,0.3s-1.1-0.1-1.6-0.3c-0.4-0.2-0.9-0.5-1.2-0.8     c-0.3-0.3-0.6-0.7-0.8-1.2c-0.2-0.4-0.3-0.7-0.3-1.1c-0.1-0.4-0.1-0.8,0-1.2c0.1-0.4,0.2-0.8,0.3-1.1c0.4-0.8,1-1.4,1.8-1.8     c0.4-0.2,0.8-0.3,1.2-0.4c0.2,0,0.3,0,0.5,0C239,35,239,35,239.1,35z M259.1,35c0.2,0,0.3,0,0.5,0c0.4,0.1,0.8,0.2,1.2,0.4     c0.8,0.4,1.4,1,1.8,1.8c0.2,0.4,0.3,0.7,0.3,1.1c0.1,0.4,0.1,0.8,0,1.2c-0.1,0.4-0.2,0.8-0.3,1.1c-0.2,0.4-0.5,0.8-0.8,1.2     c-0.4,0.3-0.8,0.6-1.2,0.8c-0.5,0.2-1,0.3-1.6,0.3s-1.1-0.1-1.6-0.3c-0.4-0.2-0.9-0.5-1.2-0.8c-0.3-0.3-0.6-0.7-0.8-1.2     c-0.2-0.4-0.3-0.7-0.3-1.1c-0.1-0.4-0.1-0.8,0-1.2c0.1-0.4,0.2-0.8,0.3-1.1c0.4-0.8,1-1.4,1.8-1.8c0.4-0.2,0.8-0.3,1.2-0.4     c0.2,0,0.3,0,0.5,0C259,35,259,35,259.1,35z M249.1,35c0.2,0,0.3,0,0.5,0c0.4,0.1,0.8,0.2,1.2,0.4c0.8,0.4,1.4,1,1.8,1.8     c0.2,0.4,0.3,0.7,0.3,1.1c0.1,0.4,0.1,0.8,0,1.2c-0.1,0.4-0.2,0.8-0.3,1.1c-0.2,0.4-0.5,0.8-0.8,1.2c-0.3,0.3-0.8,0.6-1.2,0.8     c-0.5,0.2-1,0.3-1.6,0.3s-1.1-0.1-1.6-0.3c-0.4-0.2-0.9-0.5-1.2-0.8c-0.3-0.3-0.6-0.7-0.8-1.2c-0.2-0.4-0.3-0.7-0.3-1.1     c-0.1-0.4-0.1-0.8,0-1.2c0.1-0.4,0.2-0.8,0.3-1.1c0.4-0.8,1-1.4,1.8-1.8c0.4-0.2,0.8-0.3,1.2-0.4c0.2,0,0.3,0,0.5,0     C249,35,249,35,249.1,35z M250.7,40c0,0,0-0.1,0.1-0.1c0.1-0.2,0.1-0.4,0.2-0.6c0-0.2,0-0.5,0-0.7c-0.1-0.6-0.5-1.1-1-1.4     c-0.3-0.1-0.6-0.2-0.8-0.2c-0.1,0-0.1,0-0.2,0c-0.3,0-0.6,0.1-0.9,0.2c-0.5,0.3-0.9,0.8-1.1,1.4c0,0.2-0.1,0.5,0,0.7     c0,0.2,0.1,0.4,0.2,0.6c0.1,0.2,0.2,0.4,0.4,0.6c0.2,0.2,0.4,0.3,0.6,0.4c0.2,0.1,0.5,0.2,0.8,0.2s0.5-0.1,0.8-0.2     c0.1,0,0.1-0.1,0.2-0.1c-0.5-0.5-0.9-0.9-1.4-1.4c0-0.1-0.1-0.1-0.1-0.2c-0.1-0.2,0-0.5,0.3-0.6c0.1,0,0.1-0.1,0.2-0.1     c0,0,0,0,0,0c0.1,0,0.2,0.1,0.3,0.1C249.8,39.1,250.3,39.5,250.7,40z M228,40.7c0.1,0,0.1,0.1,0.2,0.1c0.2,0.1,0.5,0.2,0.8,0.2     s0.5-0.1,0.8-0.2c0.2-0.1,0.4-0.2,0.6-0.4c0.2-0.2,0.3-0.4,0.4-0.6c0.1-0.2,0.1-0.4,0.2-0.6c0-0.2,0-0.5,0-0.7     c-0.1-0.6-0.5-1.1-1-1.4c-0.3-0.1-0.6-0.2-0.8-0.2c-0.1,0-0.1,0-0.2,0c-0.3,0-0.6,0.1-0.9,0.2c-0.5,0.3-0.9,0.8-1.1,1.4     c0,0.2-0.1,0.5,0,0.7c0,0.2,0.1,0.4,0.2,0.6c0,0,0,0.1,0.1,0.1c0.5-0.5,0.9-0.9,1.4-1.4c0.1-0.1,0.2-0.1,0.3-0.1c0,0,0,0,0.1,0     c0.1,0,0.1,0,0.2,0.1c0.2,0.1,0.3,0.3,0.3,0.6c0,0.1-0.1,0.1-0.1,0.2C228.9,39.8,228.5,40.3,228,40.7z M239.5,40.9     c0.1,0,0.2-0.1,0.3-0.1c0.2-0.1,0.4-0.2,0.6-0.4c0.2-0.2,0.3-0.4,0.4-0.6c0.1-0.2,0.1-0.4,0.2-0.6c0-0.2,0-0.5,0-0.7     c-0.1-0.6-0.5-1.1-1-1.4c-0.3-0.1-0.6-0.2-0.8-0.2c-0.1,0-0.1,0-0.2,0c-0.3,0-0.6,0.1-0.9,0.2c-0.5,0.3-0.9,0.8-1.1,1.4     c0,0.2-0.1,0.5,0,0.7c0,0.2,0.1,0.4,0.2,0.6c0.1,0.2,0.2,0.4,0.4,0.6c0.2,0.2,0.4,0.3,0.6,0.4c0.1,0,0.2,0.1,0.3,0.1     c0-0.7,0-1.3,0-2c0-0.1,0-0.1,0-0.2c0.1-0.2,0.2-0.3,0.4-0.3c0,0,0,0,0.1,0c0.1,0,0.1,0,0.2,0c0.2,0.1,0.3,0.2,0.3,0.4     C239.5,39.6,239.5,40.3,239.5,40.9z M269.5,40.9c0.1,0,0.2-0.1,0.3-0.1c0.2-0.1,0.4-0.2,0.6-0.4c0.2-0.2,0.3-0.4,0.4-0.6     c0.1-0.2,0.1-0.4,0.2-0.6c0-0.2,0-0.5,0-0.7c-0.1-0.6-0.5-1.1-1-1.4c-0.3-0.1-0.6-0.2-0.8-0.2c-0.1,0-0.1,0-0.2,0     c-0.3,0-0.6,0.1-0.9,0.2c-0.5,0.3-0.9,0.8-1.1,1.4c0,0.2-0.1,0.5,0,0.7c0,0.2,0.1,0.4,0.2,0.6c0.1,0.2,0.2,0.4,0.4,0.6     c0.2,0.2,0.4,0.3,0.6,0.4c0.1,0,0.2,0.1,0.3,0.1c0-0.7,0-1.3,0-2c0-0.2,0.1-0.4,0.3-0.4c0.1,0,0.1,0,0.2,0c0,0,0,0,0.1,0     c0.2,0,0.4,0.1,0.4,0.3c0,0.1,0,0.1,0,0.2C269.5,39.6,269.5,40.3,269.5,40.9z M259.5,40.9c0.1,0,0.2-0.1,0.3-0.1     c0.2-0.1,0.4-0.2,0.6-0.4c0.2-0.2,0.3-0.4,0.4-0.6c0.1-0.2,0.1-0.4,0.2-0.6c0-0.2,0-0.5,0-0.7c-0.1-0.6-0.5-1.1-1-1.4     c-0.3-0.1-0.6-0.2-0.8-0.2c-0.1,0-0.1,0-0.2,0c-0.3,0-0.6,0.1-0.9,0.2c-0.5,0.3-0.9,0.8-1.1,1.4c0,0.2-0.1,0.5,0,0.7     c0,0.2,0.1,0.4,0.2,0.6c0.1,0.2,0.2,0.4,0.4,0.6c0.2,0.2,0.4,0.3,0.6,0.4c0.1,0,0.2,0.1,0.3,0.1c0-0.7,0-1.3,0-2     c0-0.1,0-0.1,0-0.2c0.1-0.2,0.2-0.3,0.4-0.3c0,0,0,0,0.1,0c0.2,0,0.4,0.1,0.4,0.3c0,0.1,0,0.1,0,0.2     C259.5,39.6,259.5,40.3,259.5,40.9z M282,36c0.2,0,0.3,0,0.5,0.1c0.1,0.1,0.2,0.1,0.2,0.2c0.2,0.3,0.3,0.7,0.2,1     c0,0.1-0.1,0.2-0.2,0.3c-0.1,0.1-0.2,0.2-0.3,0.2c-0.1,0.1-0.3,0.1-0.4,0.1c-1.4,0-2.7,0-4.1,0c-0.2,0-0.3,0-0.5-0.1     c-0.1-0.1-0.2-0.1-0.2-0.2c-0.2-0.3-0.3-0.7-0.2-1c0-0.1,0.1-0.2,0.2-0.3c0.1-0.1,0.2-0.2,0.3-0.2c0.1-0.1,0.3-0.1,0.4-0.1     C279.3,36,280.7,36,282,36z M290,36c0.2,0,0.3,0,0.5,0.1c0.1,0.1,0.2,0.1,0.2,0.2c0.2,0.3,0.3,0.7,0.2,1c0,0.1-0.1,0.2-0.2,0.3     c-0.1,0.1-0.2,0.2-0.3,0.2c-0.1,0.1-0.3,0.1-0.4,0.1c-1.4,0-2.7,0-4.1,0c-0.1,0-0.3,0-0.4-0.1c-0.1-0.1-0.2-0.1-0.3-0.2     c-0.1-0.1-0.1-0.2-0.2-0.3c-0.1-0.3,0-0.7,0.2-1c0.1-0.1,0.2-0.1,0.2-0.2c0.1-0.1,0.3-0.1,0.5-0.1C287.3,36,288.7,36,290,36z      M298,36c0.2,0,0.3,0,0.5,0.1c0.1,0.1,0.2,0.1,0.2,0.2c0.2,0.3,0.3,0.7,0.2,1c0,0.1-0.1,0.2-0.2,0.3c-0.1,0.1-0.2,0.2-0.3,0.2     c-0.1,0.1-0.3,0.1-0.4,0.1c-1.4,0-2.7,0-4.1,0c-0.2,0-0.3,0-0.5-0.1c-0.1-0.1-0.2-0.1-0.2-0.2c-0.2-0.3-0.3-0.7-0.2-1     c0-0.1,0.1-0.2,0.2-0.3c0.1-0.1,0.2-0.2,0.3-0.2c0.1-0.1,0.3-0.1,0.4-0.1C295.3,36,296.7,36,298,36z M306,36c0.1,0,0.3,0,0.4,0.1     c0.1,0.1,0.2,0.1,0.3,0.2c0.1,0.1,0.1,0.2,0.2,0.3c0.1,0.3,0,0.7-0.2,1c-0.1,0.1-0.2,0.1-0.2,0.2c-0.1,0.1-0.3,0.1-0.5,0.1     c-1.4,0-2.7,0-4.1,0c-0.1,0-0.3,0-0.4-0.1c-0.1-0.1-0.2-0.1-0.3-0.2c-0.1-0.1-0.1-0.2-0.2-0.3c-0.1-0.3,0-0.7,0.2-1     c0.1-0.1,0.2-0.1,0.2-0.2c0.1-0.1,0.3-0.1,0.5-0.1C303.3,36,304.7,36,306,36z M314,36c0.1,0,0.3,0,0.4,0.1     c0.1,0.1,0.2,0.1,0.3,0.2c0.1,0.1,0.1,0.2,0.2,0.3c0,0.1,0.1,0.2,0.1,0.3c0,0.4-0.2,0.7-0.5,0.9c-0.1,0.1-0.3,0.1-0.5,0.1     c-1.4,0-2.7,0-4.1,0c-0.1,0-0.3,0-0.4-0.1c-0.1-0.1-0.2-0.1-0.3-0.2c-0.1-0.1-0.1-0.2-0.2-0.3c-0.1-0.3,0-0.7,0.2-1     c0.1-0.1,0.2-0.1,0.2-0.2c0.1-0.1,0.3-0.1,0.5-0.1C311.3,36,312.7,36,314,36z M314,34h-36c0,0-0.1,0-0.1,0c-0.1,0-0.1,0-0.2,0     c-0.3-0.1-0.5-0.3-0.6-0.6c0-0.1,0-0.1,0-0.2c0,0,0-0.1,0-0.1V7c0,0,0-0.1,0-0.1c0-0.1,0-0.1,0-0.2c0.1-0.3,0.3-0.5,0.6-0.6     c0.1,0,0.1,0,0.2-0.1c0,0,0.1,0,0.1,0h36c0,0,0.1,0,0.1,0c0,0,0.1,0,0.1,0c0.1,0,0.1,0,0.2,0.1c0.2,0.1,0.4,0.3,0.5,0.6     c0,0.1,0,0.1,0,0.2c0,0,0,0.1,0,0.1v26c0,0,0,0.1,0,0.1c0,0.1,0,0.1,0,0.2c-0.1,0.3-0.3,0.5-0.6,0.6c-0.1,0-0.1,0-0.2,0     C314.1,34,314,34,314,34z M249.1,25c0.2,0,0.3,0,0.5,0c0.4,0.1,0.8,0.2,1.2,0.4c0.8,0.4,1.5,1.1,1.8,1.9c0.1,0.3,0.3,0.7,0.3,1     c0.1,0.4,0.1,0.8,0,1.2c-0.1,0.4-0.2,0.8-0.3,1.1c-0.2,0.4-0.5,0.8-0.8,1.2c-0.3,0.3-0.8,0.6-1.2,0.8c-0.5,0.2-1,0.3-1.6,0.3     s-1.1-0.1-1.6-0.3c-0.4-0.2-0.9-0.5-1.2-0.8c-0.3-0.3-0.6-0.7-0.8-1.2c-0.2-0.4-0.3-0.7-0.3-1.1c-0.1-0.4-0.1-0.8,0-1.2     c0.1-0.4,0.2-0.7,0.3-1c0.4-0.8,1-1.5,1.8-1.9c0.4-0.2,0.8-0.3,1.2-0.4c0.2,0,0.3,0,0.5,0C249,25,249,25,249.1,25z M259.1,25     c0.2,0,0.3,0,0.5,0c0.4,0.1,0.8,0.2,1.2,0.4c0.8,0.4,1.4,1,1.8,1.8c0.2,0.4,0.3,0.7,0.3,1.1c0.1,0.4,0.1,0.8,0,1.2     c-0.1,0.4-0.2,0.8-0.3,1.1c-0.2,0.4-0.5,0.8-0.8,1.2c-0.4,0.3-0.8,0.6-1.2,0.8c-0.5,0.2-1,0.3-1.6,0.3s-1.1-0.1-1.6-0.3     c-0.4-0.2-0.9-0.5-1.2-0.8c-0.3-0.3-0.6-0.7-0.8-1.2c-0.2-0.4-0.3-0.7-0.3-1.1c-0.1-0.4-0.1-0.8,0-1.2c0.1-0.4,0.2-0.8,0.3-1.1     c0.4-0.8,1-1.4,1.8-1.8c0.4-0.2,0.8-0.3,1.2-0.4c0.2,0,0.3,0,0.5,0C259,25,259,25,259.1,25z M239.1,25c0.2,0,0.3,0,0.5,0     c0.4,0.1,0.8,0.2,1.2,0.4c0.8,0.4,1.4,1,1.8,1.8c0.2,0.4,0.3,0.7,0.3,1.1c0.1,0.4,0.1,0.8,0,1.2c-0.1,0.4-0.2,0.8-0.3,1.1     c-0.2,0.4-0.5,0.8-0.8,1.2c-0.3,0.3-0.8,0.6-1.2,0.8c-0.5,0.2-1,0.3-1.6,0.3s-1.1-0.1-1.6-0.3c-0.4-0.2-0.9-0.5-1.2-0.8     c-0.3-0.3-0.6-0.7-0.8-1.2c-0.2-0.4-0.3-0.7-0.3-1.1c-0.1-0.4-0.1-0.8,0-1.2c0.1-0.4,0.2-0.8,0.3-1.1c0.4-0.8,1-1.4,1.8-1.8     c0.4-0.2,0.8-0.3,1.2-0.4c0.2,0,0.3,0,0.5,0C239,25,239,25,239.1,25z M229.1,25c0.2,0,0.3,0,0.5,0c0.4,0.1,0.8,0.2,1.2,0.4     c0.8,0.4,1.4,1,1.8,1.8c0.2,0.4,0.3,0.7,0.3,1.1c0.1,0.4,0.1,0.8,0,1.2c-0.1,0.4-0.2,0.8-0.3,1.1c-0.2,0.4-0.5,0.8-0.8,1.2     c-0.3,0.3-0.8,0.6-1.2,0.8c-0.5,0.2-1,0.3-1.6,0.3s-1.1-0.1-1.6-0.3c-0.4-0.2-0.9-0.5-1.2-0.8c-0.3-0.3-0.6-0.7-0.8-1.2     c-0.2-0.4-0.3-0.7-0.3-1.1c-0.1-0.4-0.1-0.8,0-1.2c0.1-0.4,0.2-0.8,0.3-1.1c0.4-0.8,1-1.4,1.8-1.8c0.4-0.2,0.8-0.3,1.2-0.4     c0.2,0,0.3,0,0.5,0C229,25,229,25,229.1,25z M269.1,25c0.2,0,0.3,0,0.5,0c0.4,0.1,0.8,0.2,1.2,0.4c0.8,0.4,1.4,1,1.8,1.8     c0.2,0.4,0.3,0.7,0.3,1.1c0.1,0.4,0.1,0.8,0,1.2c-0.1,0.4-0.2,0.8-0.3,1.1c-0.2,0.4-0.5,0.8-0.8,1.2c-0.3,0.3-0.8,0.6-1.2,0.8     c-0.5,0.2-1,0.3-1.6,0.3s-1.1-0.1-1.6-0.3c-0.4-0.2-0.9-0.5-1.2-0.8c-0.3-0.3-0.6-0.7-0.8-1.2c-0.2-0.4-0.3-0.7-0.3-1.1     c-0.1-0.4-0.1-0.8,0-1.2c0.1-0.4,0.2-0.8,0.3-1.1c0.4-0.8,1-1.4,1.8-1.8c0.4-0.2,0.8-0.3,1.2-0.4c0.2,0,0.3,0,0.5,0     C269,25,269,25,269.1,25z M313,8h-34v24h34V8z M258,30.7c0.1,0,0.1,0.1,0.2,0.1c0.2,0.1,0.5,0.2,0.8,0.2c0.3,0,0.5,0,0.8-0.1     c0.2-0.1,0.4-0.2,0.6-0.4c0.2-0.2,0.3-0.4,0.4-0.6c0.1-0.2,0.2-0.4,0.2-0.6c0-0.2,0-0.4,0-0.7c-0.1-0.6-0.5-1.2-1-1.5     c-0.3-0.1-0.6-0.2-0.8-0.2c-0.1,0-0.1,0-0.2,0c-0.3,0-0.6,0.1-0.9,0.2c-0.5,0.3-0.9,0.8-1,1.3c-0.1,0.2-0.1,0.5,0,0.7     c0,0.2,0.1,0.4,0.2,0.6c0,0.1,0.1,0.1,0.1,0.2c0.5-0.5,0.9-0.9,1.4-1.4c0.1-0.1,0.2-0.1,0.3-0.1c0,0,0,0,0.1,0     c0.1,0,0.1,0,0.2,0.1c0.2,0.1,0.3,0.3,0.3,0.6c0,0.1-0.1,0.1-0.1,0.2C258.9,29.8,258.5,30.3,258,30.7z M230.7,30.1     c0,0,0.1-0.1,0.1-0.2c0.1-0.2,0.2-0.4,0.2-0.6c0-0.2,0-0.4,0-0.7c-0.1-0.6-0.5-1.2-1-1.5c-0.3-0.1-0.6-0.2-0.8-0.2     c-0.1,0-0.1,0-0.2,0c-0.3,0-0.6,0.1-0.9,0.2c-0.5,0.3-0.9,0.8-1,1.3c-0.1,0.2-0.1,0.5,0,0.7c0,0.2,0.1,0.4,0.2,0.6     c0.1,0.2,0.2,0.4,0.4,0.6c0.2,0.2,0.4,0.3,0.6,0.4c0.2,0.1,0.5,0.2,0.8,0.2c0.3,0,0.5,0,0.8-0.1c0.1,0,0.1-0.1,0.2-0.1     c-0.5-0.5-1-0.9-1.4-1.5c0-0.1-0.1-0.1-0.1-0.2c-0.1-0.2,0-0.5,0.3-0.6c0.1,0,0.1-0.1,0.2-0.1c0,0,0,0,0,0c0.1,0,0.2,0.1,0.3,0.1     C229.7,29.1,230.2,29.6,230.7,30.1z M249.5,30.9c0.1,0,0.1,0,0.2-0.1c0.2-0.1,0.4-0.2,0.6-0.4c0.2-0.2,0.3-0.4,0.4-0.6     c0.1-0.2,0.2-0.4,0.2-0.6c0-0.2,0-0.4,0-0.7c-0.1-0.6-0.5-1.1-1-1.4c-0.3-0.1-0.5-0.2-0.8-0.3c-0.1,0-0.1,0-0.2,0     c-0.3,0-0.6,0.1-0.9,0.2c-0.5,0.3-0.9,0.8-1,1.3c-0.1,0.2-0.1,0.5,0,0.7c0,0.2,0.1,0.4,0.2,0.6c0.1,0.2,0.2,0.4,0.4,0.6     c0.2,0.2,0.4,0.3,0.6,0.4c0.1,0,0.2,0.1,0.3,0.1c0-0.7,0-1.3,0-2c0-0.1,0-0.1,0-0.2c0.1-0.2,0.2-0.3,0.4-0.3c0,0,0,0,0.1,0     c0.2,0,0.4,0.1,0.4,0.3c0,0.1,0,0.1,0,0.2C249.5,29.6,249.5,30.3,249.5,30.9z M239.5,30.9c0.1,0,0.1,0,0.2-0.1     c0.2-0.1,0.4-0.2,0.6-0.4c0.2-0.2,0.3-0.4,0.4-0.6c0.1-0.2,0.2-0.4,0.2-0.6c0-0.2,0-0.4,0-0.7c-0.1-0.6-0.5-1.2-1-1.5     c-0.3-0.1-0.6-0.2-0.8-0.2c-0.1,0-0.1,0-0.2,0c-0.3,0-0.6,0.1-0.9,0.2c-0.5,0.3-0.9,0.8-1,1.3c-0.1,0.2-0.1,0.5,0,0.7     c0,0.2,0.1,0.4,0.2,0.6c0.1,0.2,0.2,0.4,0.4,0.6c0.2,0.2,0.4,0.3,0.6,0.4c0.1,0,0.2,0.1,0.3,0.1c0-0.7,0-1.3,0-2     c0-0.2,0.1-0.4,0.3-0.4c0.1,0,0.1,0,0.2,0c0,0,0,0,0.1,0c0.1,0,0.1,0,0.2,0c0.2,0.1,0.3,0.2,0.3,0.4     C239.5,29.6,239.5,30.3,239.5,30.9z M269.5,30.9c0.1,0,0.1,0,0.2-0.1c0.2-0.1,0.4-0.2,0.6-0.4c0.2-0.2,0.3-0.4,0.4-0.6     c0.1-0.2,0.2-0.4,0.2-0.6c0-0.2,0-0.4,0-0.7c-0.1-0.6-0.5-1.2-1-1.5c-0.3-0.1-0.6-0.2-0.8-0.2c-0.1,0-0.1,0-0.2,0     c-0.3,0-0.6,0.1-0.9,0.2c-0.5,0.3-0.9,0.8-1,1.3c-0.1,0.2-0.1,0.5,0,0.7c0,0.2,0.1,0.4,0.2,0.6c0.1,0.2,0.2,0.4,0.4,0.6     c0.2,0.2,0.4,0.3,0.6,0.4c0.1,0,0.2,0.1,0.3,0.1c0-0.7,0-1.3,0-2c0-0.2,0.1-0.4,0.3-0.4c0.1,0,0.1,0,0.2,0c0,0,0,0,0.1,0     c0.2,0,0.4,0.1,0.4,0.3c0,0.1,0,0.1,0,0.2C269.5,29.6,269.5,30.3,269.5,30.9z M287,27c0.1,0,0.3,0,0.4,0.1     c0.1,0.1,0.2,0.1,0.3,0.2c0.1,0.1,0.1,0.2,0.2,0.3c0,0.1,0.1,0.2,0.1,0.3c0,0.4-0.2,0.7-0.5,0.9c-0.1,0.1-0.3,0.1-0.5,0.1     c-1.4,0-2.7,0-4.1,0c-0.2,0-0.3-0.1-0.5-0.1c-0.1-0.1-0.2-0.1-0.2-0.2c-0.2-0.3-0.3-0.7-0.2-1c0-0.1,0.1-0.2,0.2-0.3     c0.1-0.1,0.2-0.2,0.3-0.2c0.1-0.1,0.3-0.1,0.4-0.1C284.3,27,285.7,27,287,27z M294,27c0.2,0,0.3,0.1,0.5,0.1     c0.1,0.1,0.2,0.1,0.2,0.2c0.2,0.3,0.3,0.7,0.2,1c0,0.1-0.1,0.2-0.2,0.3c-0.1,0.1-0.2,0.2-0.3,0.2c-0.1,0.1-0.3,0.1-0.4,0.1     c-1.4,0-2.7,0-4.1,0c-0.2,0-0.3-0.1-0.5-0.1c-0.1-0.1-0.2-0.1-0.2-0.2c-0.2-0.3-0.3-0.7-0.2-1c0-0.1,0.1-0.2,0.2-0.3     c0.1-0.1,0.2-0.2,0.3-0.2c0.1-0.1,0.3-0.1,0.4-0.1C291.3,27,292.7,27,294,27z M301,27c0.1,0,0.3,0,0.4,0.1     c0.1,0.1,0.2,0.1,0.3,0.2c0.1,0.1,0.1,0.2,0.2,0.3c0.1,0.3,0,0.7-0.2,1c-0.1,0.1-0.2,0.1-0.2,0.2c-0.1,0.1-0.3,0.1-0.5,0.1     c-1.4,0-2.7,0-4.1,0c-0.2,0-0.3-0.1-0.5-0.1c-0.1-0.1-0.2-0.1-0.2-0.2c-0.2-0.3-0.3-0.7-0.2-1c0-0.1,0.1-0.2,0.2-0.3     c0.1-0.1,0.2-0.2,0.3-0.2c0.1-0.1,0.3-0.1,0.4-0.1C298.3,27,299.7,27,301,27z M308,27c0.2,0,0.3,0.1,0.5,0.1     c0.1,0.1,0.2,0.1,0.2,0.2c0.2,0.3,0.3,0.7,0.2,1c0,0.1-0.1,0.2-0.2,0.3c-0.1,0.1-0.2,0.2-0.3,0.2c-0.1,0.1-0.3,0.1-0.4,0.1     c-1.4,0-2.7,0-4.1,0c-0.2,0-0.3-0.1-0.5-0.1c-0.1-0.1-0.2-0.1-0.2-0.2c-0.2-0.3-0.3-0.7-0.2-1c0-0.1,0.1-0.2,0.2-0.3     c0.1-0.1,0.2-0.2,0.3-0.2c0.1-0.1,0.3-0.1,0.4-0.1C305.3,27,306.7,27,308,27z M301,24c0.2,0,0.3,0.1,0.5,0.1     c0.3,0.2,0.5,0.5,0.5,0.9c0,0.1,0,0.2-0.1,0.3c0,0.1-0.1,0.2-0.2,0.3c-0.1,0.1-0.2,0.2-0.3,0.2c-0.1,0.1-0.3,0.1-0.4,0.1     c-1.4,0-2.7,0-4.1,0c-0.2,0-0.3-0.1-0.5-0.1c-0.1-0.1-0.2-0.1-0.2-0.2c-0.2-0.3-0.3-0.7-0.2-1c0-0.1,0.1-0.2,0.2-0.3     c0.1-0.1,0.2-0.2,0.3-0.2c0.1-0.1,0.3-0.1,0.4-0.1C298.3,24,299.7,24,301,24z M294,24c0.2,0,0.3,0.1,0.5,0.1     c0.3,0.2,0.5,0.5,0.5,0.9c0,0.1,0,0.2-0.1,0.3c0,0.1-0.1,0.2-0.2,0.3c-0.1,0.1-0.2,0.2-0.3,0.2c-0.1,0.1-0.3,0.1-0.4,0.1     c-1.4,0-2.7,0-4.1,0c-0.2,0-0.3-0.1-0.5-0.1c-0.3-0.2-0.5-0.5-0.5-0.9c0-0.1,0-0.2,0.1-0.3c0-0.1,0.1-0.2,0.2-0.3     c0.1-0.1,0.2-0.2,0.3-0.2c0.1-0.1,0.3-0.1,0.4-0.1C291.3,24,292.7,24,294,24z M287,24c0.2,0,0.3,0.1,0.5,0.1     c0.3,0.2,0.5,0.5,0.5,0.9c0,0.1,0,0.2-0.1,0.3c0,0.1-0.1,0.2-0.2,0.3c-0.1,0.1-0.2,0.2-0.3,0.2c-0.1,0.1-0.3,0.1-0.4,0.1     c-1.4,0-2.7,0-4.1,0c-0.1,0-0.3,0-0.4-0.1c-0.1-0.1-0.2-0.1-0.3-0.2c-0.1-0.1-0.1-0.2-0.2-0.3c-0.1-0.3,0-0.7,0.2-1     c0.1-0.1,0.2-0.1,0.2-0.2c0.1-0.1,0.3-0.1,0.5-0.1C284.3,24,285.7,24,287,24z M308,24c0.2,0,0.3,0.1,0.5,0.1     c0.1,0.1,0.2,0.1,0.2,0.2c0.2,0.3,0.3,0.7,0.2,1c0,0.1-0.1,0.2-0.2,0.3c-0.1,0.1-0.2,0.2-0.3,0.2c-0.1,0.1-0.3,0.1-0.4,0.1     c-1.4,0-2.7,0-4.1,0c-0.2,0-0.3-0.1-0.5-0.1c-0.1-0.1-0.2-0.1-0.2-0.2c-0.2-0.3-0.3-0.7-0.2-1c0-0.1,0.1-0.2,0.2-0.3     c0.1-0.1,0.2-0.2,0.3-0.2c0.1-0.1,0.3-0.1,0.4-0.1C305.3,24,306.7,24,308,24z M294,21c0.2,0,0.3,0.1,0.5,0.1     c0.1,0.1,0.2,0.1,0.2,0.2c0.2,0.3,0.3,0.7,0.2,1c0,0.1-0.1,0.2-0.2,0.3c-0.1,0.1-0.2,0.2-0.3,0.2c-0.1,0.1-0.3,0.1-0.4,0.1     c-1.4,0-2.7,0-4.1,0c-0.2,0-0.3-0.1-0.5-0.1c-0.3-0.2-0.5-0.5-0.5-0.9c0-0.1,0-0.2,0.1-0.3c0-0.1,0.1-0.2,0.2-0.3     c0.1-0.1,0.2-0.2,0.3-0.2c0.1-0.1,0.3-0.1,0.4-0.1C291.3,21,292.7,21,294,21z M301,21c0.2,0,0.3,0.1,0.5,0.1     c0.1,0.1,0.2,0.1,0.2,0.2c0.2,0.3,0.3,0.7,0.2,1c0,0.1-0.1,0.2-0.2,0.3c-0.1,0.1-0.2,0.2-0.3,0.2c-0.1,0.1-0.3,0.1-0.4,0.1     c-1.4,0-2.7,0-4.1,0c-0.2,0-0.3-0.1-0.5-0.1c-0.1-0.1-0.2-0.1-0.2-0.2c-0.2-0.3-0.3-0.7-0.2-1c0-0.1,0.1-0.2,0.2-0.3     c0.1-0.1,0.2-0.2,0.3-0.2c0.1-0.1,0.3-0.1,0.4-0.1C298.3,21,299.7,21,301,21z M287,21c0.2,0,0.3,0.1,0.5,0.1     c0.1,0.1,0.2,0.1,0.2,0.2c0.2,0.3,0.3,0.7,0.2,1c0,0.1-0.1,0.2-0.2,0.3c-0.1,0.1-0.2,0.2-0.3,0.2c-0.1,0.1-0.3,0.1-0.4,0.1     c-1.4,0-2.7,0-4.1,0c-0.1,0-0.3,0-0.4-0.1c-0.1-0.1-0.2-0.1-0.3-0.2c-0.1-0.1-0.1-0.2-0.2-0.3c-0.1-0.3,0-0.7,0.2-1     c0.1-0.1,0.2-0.1,0.2-0.2c0.1-0.1,0.3-0.1,0.5-0.1C284.3,21,285.7,21,287,21z M308,21c0.2,0,0.3,0.1,0.5,0.1     c0.1,0.1,0.2,0.1,0.2,0.2c0.2,0.3,0.3,0.7,0.2,1c0,0.1-0.1,0.2-0.2,0.3c-0.1,0.1-0.2,0.2-0.3,0.2c-0.1,0.1-0.3,0.1-0.4,0.1     c-1.4,0-2.7,0-4.1,0c-0.2,0-0.3-0.1-0.5-0.1c-0.1-0.1-0.2-0.1-0.2-0.2c-0.2-0.3-0.3-0.7-0.2-1c0-0.1,0.1-0.2,0.2-0.3     c0.1-0.1,0.2-0.2,0.3-0.2c0.1-0.1,0.3-0.1,0.4-0.1C305.3,21,306.7,21,308,21z M259.1,15c0.2,0,0.3,0,0.5,0     c0.4,0.1,0.8,0.2,1.2,0.4c0.8,0.4,1.4,1,1.8,1.8c0.2,0.4,0.3,0.7,0.3,1.1c0.1,0.4,0.1,0.8,0,1.2c-0.1,0.4-0.2,0.8-0.3,1.1     c-0.2,0.4-0.5,0.8-0.8,1.2c-0.4,0.3-0.8,0.6-1.2,0.8c-0.5,0.2-1,0.3-1.6,0.3s-1.1-0.1-1.6-0.3c-0.4-0.2-0.9-0.5-1.2-0.8     c-0.3-0.3-0.6-0.7-0.8-1.2c-0.2-0.4-0.3-0.7-0.3-1.1c-0.1-0.4-0.1-0.8,0-1.2c0.1-0.4,0.2-0.8,0.3-1.1c0.4-0.8,1-1.4,1.8-1.8     c0.4-0.2,0.8-0.3,1.2-0.4c0.2,0,0.3,0,0.5,0C259,15,259,15,259.1,15z M269.1,15c0.2,0,0.3,0,0.5,0c0.4,0.1,0.8,0.2,1.2,0.4     c0.8,0.4,1.4,1,1.8,1.8c0.2,0.4,0.3,0.7,0.3,1.1c0.1,0.4,0.1,0.8,0,1.2c-0.1,0.4-0.2,0.8-0.3,1.1c-0.2,0.4-0.5,0.8-0.8,1.2     c-0.3,0.3-0.8,0.6-1.2,0.8c-0.5,0.2-1,0.3-1.6,0.3s-1.1-0.1-1.6-0.3c-0.4-0.2-0.9-0.5-1.2-0.8c-0.3-0.3-0.6-0.7-0.8-1.2     c-0.2-0.4-0.3-0.7-0.3-1.1c-0.1-0.4-0.1-0.8,0-1.2c0.1-0.4,0.2-0.8,0.3-1.1c0.4-0.8,1-1.4,1.8-1.8c0.4-0.2,0.8-0.3,1.2-0.4     c0.2,0,0.3,0,0.5,0C269,15,269,15,269.1,15z M229.1,15c0.2,0,0.3,0,0.5,0c0.4,0.1,0.8,0.2,1.2,0.4c0.8,0.4,1.4,1,1.8,1.8     c0.2,0.4,0.3,0.7,0.3,1.1c0.1,0.4,0.1,0.8,0,1.2c-0.1,0.4-0.2,0.8-0.3,1.1c-0.2,0.4-0.5,0.8-0.8,1.2c-0.3,0.3-0.8,0.6-1.2,0.8     c-0.5,0.2-1,0.3-1.6,0.3s-1.1-0.1-1.6-0.3c-0.4-0.2-0.9-0.5-1.2-0.8c-0.3-0.3-0.6-0.7-0.8-1.2c-0.2-0.4-0.3-0.7-0.3-1.1     c-0.1-0.4-0.1-0.8,0-1.2c0.1-0.4,0.2-0.8,0.3-1.1c0.4-0.8,1-1.4,1.8-1.8c0.4-0.2,0.8-0.3,1.2-0.4c0.2,0,0.3,0,0.5,0     C229,15,229,15,229.1,15z M249.1,15c0.2,0,0.3,0,0.5,0c0.4,0.1,0.8,0.2,1.2,0.4c0.8,0.4,1.5,1.1,1.8,1.9c0.1,0.3,0.3,0.7,0.3,1     c0.1,0.4,0.1,0.8,0,1.2c-0.1,0.4-0.2,0.8-0.3,1.1c-0.2,0.4-0.5,0.8-0.8,1.2c-0.3,0.3-0.8,0.6-1.2,0.8c-0.5,0.2-1,0.3-1.6,0.3     s-1.1-0.1-1.6-0.3c-0.4-0.2-0.9-0.5-1.2-0.8c-0.3-0.3-0.6-0.7-0.8-1.2c-0.2-0.4-0.3-0.7-0.3-1.1c-0.1-0.4-0.1-0.8,0-1.2     c0.1-0.4,0.2-0.7,0.3-1c0.4-0.8,1-1.5,1.8-1.9c0.4-0.2,0.8-0.3,1.2-0.4c0.2,0,0.3,0,0.5,0C249,15,249,15,249.1,15z M239.1,15     c0.2,0,0.3,0,0.5,0c0.4,0.1,0.8,0.2,1.2,0.4c0.8,0.4,1.4,1,1.8,1.8c0.2,0.4,0.3,0.7,0.3,1.1c0.1,0.4,0.1,0.8,0,1.2     c-0.1,0.4-0.2,0.8-0.3,1.1c-0.2,0.4-0.5,0.8-0.8,1.2c-0.3,0.3-0.8,0.6-1.2,0.8c-0.5,0.2-1,0.3-1.6,0.3s-1.1-0.1-1.6-0.3     c-0.4-0.2-0.9-0.5-1.2-0.8c-0.3-0.3-0.6-0.7-0.8-1.2c-0.2-0.4-0.3-0.7-0.3-1.1c-0.1-0.4-0.1-0.8,0-1.2c0.1-0.4,0.2-0.8,0.3-1.1     c0.4-0.8,1-1.4,1.8-1.8c0.4-0.2,0.8-0.3,1.2-0.4c0.2,0,0.3,0,0.5,0C239,15,239,15,239.1,15z M270.7,20c0,0,0-0.1,0.1-0.1     c0.1-0.2,0.1-0.4,0.2-0.6c0-0.2,0-0.5,0-0.7c-0.1-0.6-0.5-1.1-1-1.4c-0.3-0.1-0.6-0.2-0.8-0.2c-0.1,0-0.1,0-0.2,0     c-0.3,0-0.6,0.1-0.9,0.2c-0.5,0.3-0.9,0.8-1.1,1.4c0,0.2-0.1,0.5,0,0.7c0,0.2,0.1,0.4,0.2,0.6c0.1,0.2,0.2,0.4,0.4,0.6     c0.2,0.2,0.4,0.3,0.6,0.4c0.2,0.1,0.5,0.2,0.8,0.2s0.5-0.1,0.8-0.2c0.1,0,0.1-0.1,0.2-0.1c-0.5-0.5-0.9-0.9-1.4-1.4     c0-0.1-0.1-0.1-0.1-0.2c-0.1-0.2,0-0.5,0.3-0.6c0.1,0,0.1-0.1,0.2-0.1c0,0,0,0,0,0c0.1,0,0.2,0.1,0.3,0.1     C269.8,19.1,270.3,19.5,270.7,20z M248,20.7c0.1,0,0.1,0.1,0.2,0.1c0.2,0.1,0.5,0.2,0.8,0.2c0.3,0,0.5,0,0.8-0.1     c0.2-0.1,0.4-0.2,0.6-0.4c0.2-0.2,0.3-0.4,0.4-0.6c0.1-0.2,0.2-0.4,0.2-0.6c0-0.2,0-0.4,0-0.7c-0.1-0.6-0.5-1.1-1-1.4     c-0.3-0.1-0.5-0.2-0.8-0.3c-0.1,0-0.1,0-0.2,0c-0.3,0-0.6,0.1-0.9,0.2c-0.5,0.3-0.9,0.8-1,1.3c-0.1,0.2-0.1,0.5,0,0.7     c0,0.2,0.1,0.4,0.2,0.6c0,0.1,0.1,0.1,0.1,0.2c0.5-0.5,0.9-0.9,1.4-1.4c0.1-0.1,0.2-0.1,0.3-0.1c0,0,0,0,0.1,0     c0.1,0,0.1,0,0.2,0.1c0.2,0.1,0.3,0.3,0.3,0.6c0,0.1-0.1,0.1-0.1,0.2C248.9,19.8,248.5,20.3,248,20.7z M239.5,20.9     c0.1,0,0.2-0.1,0.3-0.1c0.2-0.1,0.4-0.2,0.6-0.4c0.2-0.2,0.3-0.4,0.4-0.6c0.1-0.2,0.1-0.4,0.2-0.6c0-0.2,0-0.5,0-0.7     c-0.1-0.6-0.5-1.1-1-1.4c-0.3-0.1-0.6-0.2-0.8-0.2c-0.1,0-0.1,0-0.2,0c-0.3,0-0.6,0.1-0.9,0.2c-0.5,0.3-0.9,0.8-1.1,1.4     c0,0.2-0.1,0.5,0,0.7c0,0.2,0.1,0.4,0.2,0.6c0.1,0.2,0.2,0.4,0.4,0.6c0.2,0.2,0.4,0.3,0.6,0.4c0.1,0,0.2,0.1,0.3,0.1     c0-0.7,0-1.3,0-2c0-0.1,0-0.1,0-0.2c0.1-0.2,0.2-0.3,0.4-0.3c0,0,0,0,0.1,0c0.1,0,0.1,0,0.2,0c0.2,0.1,0.3,0.2,0.3,0.4     C239.5,19.6,239.5,20.3,239.5,20.9z M229.5,20.9c0.1,0,0.2-0.1,0.3-0.1c0.2-0.1,0.4-0.2,0.6-0.4c0.2-0.2,0.3-0.4,0.4-0.6     c0.1-0.2,0.1-0.4,0.2-0.6c0-0.2,0-0.5,0-0.7c-0.1-0.6-0.5-1.1-1-1.4c-0.3-0.1-0.6-0.2-0.8-0.2c-0.1,0-0.1,0-0.2,0     c-0.3,0-0.6,0.1-0.9,0.2c-0.5,0.3-0.9,0.8-1.1,1.4c0,0.2-0.1,0.5,0,0.7c0,0.2,0.1,0.4,0.2,0.6c0.1,0.2,0.2,0.4,0.4,0.6     c0.2,0.2,0.4,0.3,0.6,0.4c0.1,0,0.2,0.1,0.3,0.1c0-0.7,0-1.3,0-2c0-0.1,0-0.1,0-0.2c0.1-0.2,0.2-0.3,0.4-0.3c0,0,0,0,0.1,0     c0.2,0,0.4,0.1,0.4,0.3c0,0.1,0,0.1,0,0.2C229.5,19.6,229.5,20.3,229.5,20.9z M259.5,20.9c0.1,0,0.2-0.1,0.3-0.1     c0.2-0.1,0.4-0.2,0.6-0.4c0.2-0.2,0.3-0.4,0.4-0.6c0.1-0.2,0.1-0.4,0.2-0.6c0-0.2,0-0.5,0-0.7c-0.1-0.6-0.5-1.1-1-1.4     c-0.3-0.1-0.6-0.2-0.8-0.2c-0.1,0-0.1,0-0.2,0c-0.3,0-0.6,0.1-0.9,0.2c-0.5,0.3-0.9,0.8-1.1,1.4c0,0.2-0.1,0.5,0,0.7     c0,0.2,0.1,0.4,0.2,0.6c0.1,0.2,0.2,0.4,0.4,0.6c0.2,0.2,0.4,0.3,0.6,0.4c0.1,0,0.2,0.1,0.3,0.1c0-0.7,0-1.3,0-2     c0-0.1,0-0.1,0-0.2c0.1-0.2,0.2-0.3,0.4-0.3c0,0,0,0,0.1,0c0.1,0,0.1,0,0.2,0c0.2,0.1,0.3,0.2,0.3,0.4     C259.5,19.6,259.5,20.3,259.5,20.9z M287,18c0.1,0,0.3,0,0.4,0.1c0.1,0.1,0.2,0.1,0.3,0.2c0.1,0.1,0.1,0.2,0.2,0.3     c0,0.1,0.1,0.2,0.1,0.3c0,0.4-0.2,0.7-0.5,0.9c-0.1,0.1-0.3,0.1-0.5,0.1c-1.4,0-2.7,0-4.1,0c-0.1,0-0.3,0-0.4-0.1     c-0.1-0.1-0.2-0.1-0.3-0.2c-0.1-0.1-0.1-0.2-0.2-0.3c0-0.1-0.1-0.2-0.1-0.3c0-0.4,0.2-0.7,0.5-0.9c0.1-0.1,0.3-0.1,0.5-0.1     C284.3,18,285.7,18,287,18z M294,18c0.2,0,0.3,0.1,0.5,0.1c0.3,0.2,0.5,0.5,0.5,0.9c0,0.1,0,0.2-0.1,0.3c0,0.1-0.1,0.2-0.2,0.3     c-0.1,0.1-0.2,0.2-0.3,0.2c-0.1,0.1-0.3,0.1-0.4,0.1c-1.4,0-2.7,0-4.1,0c-0.2,0-0.3-0.1-0.5-0.1c-0.1-0.1-0.2-0.1-0.2-0.2     c-0.2-0.3-0.3-0.7-0.2-1c0-0.1,0.1-0.2,0.2-0.3c0.1-0.1,0.2-0.2,0.3-0.2c0.1-0.1,0.3-0.1,0.4-0.1C291.3,18,292.7,18,294,18z      M301,18c0.1,0,0.3,0,0.4,0.1c0.1,0.1,0.2,0.1,0.3,0.2c0.1,0.1,0.1,0.2,0.2,0.3c0,0.1,0.1,0.2,0.1,0.3c0,0.4-0.2,0.7-0.5,0.9     c-0.1,0.1-0.3,0.1-0.5,0.1c-1.4,0-2.7,0-4.1,0c-0.2,0-0.3-0.1-0.5-0.1c-0.1-0.1-0.2-0.1-0.2-0.2c-0.2-0.3-0.3-0.7-0.2-1     c0-0.1,0.1-0.2,0.2-0.3c0.1-0.1,0.2-0.2,0.3-0.2c0.1-0.1,0.3-0.1,0.4-0.1C298.3,18,299.7,18,301,18z M301,15c0.1,0,0.3,0,0.4,0.1     c0.1,0.1,0.2,0.1,0.3,0.2c0.1,0.1,0.1,0.2,0.2,0.3c0,0.1,0.1,0.2,0.1,0.3c0,0.4-0.2,0.7-0.5,0.9c-0.1,0.1-0.3,0.1-0.5,0.1     c-1.4,0-2.7,0-4.1,0c-0.1,0-0.3,0-0.4-0.1c-0.1-0.1-0.2-0.1-0.3-0.2c-0.1-0.1-0.1-0.2-0.2-0.3c0-0.1-0.1-0.2-0.1-0.3     c0-0.4,0.2-0.7,0.5-0.9c0.1-0.1,0.3-0.1,0.5-0.1C298.3,15,299.7,15,301,15z M287,15c0.1,0,0.3,0,0.4,0.1c0.1,0.1,0.2,0.1,0.3,0.2     c0.1,0.1,0.1,0.2,0.2,0.3c0,0.1,0.1,0.2,0.1,0.3c0,0.4-0.2,0.7-0.5,0.9c-0.1,0.1-0.3,0.1-0.5,0.1c-1.4,0-2.7,0-4.1,0     c-0.2,0-0.3-0.1-0.5-0.1c-0.1-0.1-0.2-0.1-0.2-0.2c-0.2-0.3-0.3-0.7-0.2-1c0-0.1,0.1-0.2,0.2-0.3c0.1-0.1,0.2-0.2,0.3-0.2     c0.1-0.1,0.3-0.1,0.4-0.1C284.3,15,285.7,15,287,15z M249.1,5c0.2,0,0.3,0,0.5,0c0.4,0.1,0.8,0.2,1.2,0.4     c0.8,0.4,1.5,1.1,1.8,1.9c0.1,0.3,0.3,0.7,0.3,1c0.1,0.4,0.1,0.8,0,1.2c-0.1,0.4-0.2,0.8-0.3,1.1c-0.2,0.4-0.5,0.8-0.8,1.2     c-0.3,0.3-0.8,0.6-1.2,0.8c-0.5,0.2-1,0.3-1.6,0.3s-1.1-0.1-1.6-0.3c-0.4-0.2-0.9-0.5-1.2-0.8c-0.3-0.3-0.6-0.7-0.8-1.2     c-0.2-0.4-0.3-0.7-0.3-1.1c-0.1-0.4-0.1-0.8,0-1.2c0.1-0.4,0.2-0.7,0.3-1c0.4-0.8,1-1.5,1.8-1.9c0.4-0.2,0.8-0.3,1.2-0.4     c0.2,0,0.3,0,0.5,0C249,5,249,5,249.1,5z M259.1,5c0.2,0,0.3,0,0.5,0c0.4,0.1,0.8,0.2,1.2,0.4c0.8,0.4,1.4,1,1.8,1.8     c0.2,0.4,0.3,0.7,0.3,1.1c0.1,0.4,0.1,0.8,0,1.2c-0.1,0.4-0.2,0.8-0.3,1.1c-0.2,0.4-0.5,0.8-0.8,1.2c-0.4,0.3-0.8,0.6-1.2,0.8     c-0.5,0.2-1,0.3-1.6,0.3s-1.1-0.1-1.6-0.3c-0.4-0.2-0.9-0.5-1.2-0.8c-0.3-0.3-0.6-0.7-0.8-1.2c-0.2-0.4-0.3-0.7-0.3-1.1     c-0.1-0.4-0.1-0.8,0-1.2c0.1-0.4,0.2-0.8,0.3-1.1c0.4-0.8,1-1.4,1.8-1.8c0.4-0.2,0.8-0.3,1.2-0.4c0.2,0,0.3,0,0.5,0     C259,5,259,5,259.1,5z M269.1,5c0.2,0,0.3,0,0.5,0c0.4,0.1,0.8,0.2,1.2,0.4c0.8,0.4,1.4,1,1.8,1.8c0.2,0.4,0.3,0.7,0.3,1.1     c0.1,0.4,0.1,0.8,0,1.2c-0.1,0.4-0.2,0.8-0.3,1.1c-0.2,0.4-0.5,0.8-0.8,1.2c-0.3,0.3-0.8,0.6-1.2,0.8c-0.5,0.2-1,0.3-1.6,0.3     s-1.1-0.1-1.6-0.3c-0.4-0.2-0.9-0.5-1.2-0.8c-0.3-0.3-0.6-0.7-0.8-1.2c-0.2-0.4-0.3-0.7-0.3-1.1c-0.1-0.4-0.1-0.8,0-1.2     c0.1-0.4,0.2-0.8,0.3-1.1c0.4-0.8,1-1.4,1.8-1.8c0.4-0.2,0.8-0.3,1.2-0.4c0.2,0,0.3,0,0.5,0C269,5,269,5,269.1,5z M229.1,5     c0.2,0,0.3,0,0.5,0c0.4,0.1,0.8,0.2,1.2,0.4c0.8,0.4,1.4,1,1.8,1.8c0.2,0.4,0.3,0.7,0.3,1.1c0.1,0.4,0.1,0.8,0,1.2     c-0.1,0.4-0.2,0.8-0.3,1.1c-0.2,0.4-0.5,0.8-0.8,1.2c-0.3,0.3-0.8,0.6-1.2,0.8c-0.5,0.2-1,0.3-1.6,0.3s-1.1-0.1-1.6-0.3     c-0.4-0.2-0.9-0.5-1.2-0.8c-0.3-0.3-0.6-0.7-0.8-1.2c-0.2-0.4-0.3-0.7-0.3-1.1c-0.1-0.4-0.1-0.8,0-1.2c0.1-0.4,0.2-0.8,0.3-1.1     c0.4-0.8,1-1.4,1.8-1.8c0.4-0.2,0.8-0.3,1.2-0.4c0.2,0,0.3,0,0.5,0C229,5,229,5,229.1,5z M239.1,5c0.2,0,0.3,0,0.5,0     c0.4,0.1,0.8,0.2,1.2,0.4c0.8,0.4,1.4,1,1.8,1.8c0.2,0.4,0.3,0.7,0.3,1.1c0.1,0.4,0.1,0.8,0,1.2c-0.1,0.4-0.2,0.8-0.3,1.1     c-0.2,0.4-0.5,0.8-0.8,1.2c-0.3,0.3-0.8,0.6-1.2,0.8c-0.5,0.2-1,0.3-1.6,0.3s-1.1-0.1-1.6-0.3c-0.4-0.2-0.9-0.5-1.2-0.8     c-0.3-0.3-0.6-0.7-0.8-1.2c-0.2-0.4-0.3-0.7-0.3-1.1c-0.1-0.4-0.1-0.8,0-1.2c0.1-0.4,0.2-0.8,0.3-1.1c0.4-0.8,1-1.4,1.8-1.8     c0.4-0.2,0.8-0.3,1.2-0.4c0.2,0,0.3,0,0.5,0C239,5,239,5,239.1,5z M240.7,10c0,0,0-0.1,0.1-0.1c0.1-0.2,0.1-0.4,0.2-0.6     c0-0.2,0-0.5,0-0.7c-0.1-0.6-0.5-1.1-1-1.4c-0.3-0.1-0.6-0.2-0.8-0.2c-0.1,0-0.1,0-0.2,0c-0.3,0-0.6,0.1-0.9,0.2     c-0.5,0.3-0.9,0.8-1.1,1.4c0,0.2-0.1,0.5,0,0.7c0,0.2,0.1,0.4,0.2,0.6c0.1,0.2,0.2,0.4,0.4,0.6c0.2,0.2,0.4,0.3,0.6,0.4     c0.2,0.1,0.5,0.2,0.8,0.2s0.5-0.1,0.8-0.2c0.1,0,0.1-0.1,0.2-0.1c-0.5-0.5-0.9-0.9-1.4-1.4c0-0.1-0.1-0.1-0.1-0.2     c-0.1-0.2,0-0.5,0.3-0.6c0.1,0,0.1-0.1,0.2-0.1c0,0,0,0,0,0c0.1,0,0.2,0.1,0.3,0.1C239.8,9.1,240.3,9.5,240.7,10z M268,10.7     c0.1,0,0.1,0.1,0.2,0.1c0.2,0.1,0.5,0.2,0.8,0.2s0.5-0.1,0.8-0.2c0.2-0.1,0.4-0.2,0.6-0.4c0.2-0.2,0.3-0.4,0.4-0.6     c0.1-0.2,0.1-0.4,0.2-0.6c0-0.2,0-0.5,0-0.7c-0.1-0.6-0.5-1.1-1-1.4c-0.3-0.1-0.6-0.2-0.8-0.2c-0.1,0-0.1,0-0.2,0     c-0.3,0-0.6,0.1-0.9,0.2c-0.5,0.3-0.9,0.8-1.1,1.4c0,0.2-0.1,0.5,0,0.7c0,0.2,0.1,0.4,0.2,0.6c0,0,0,0.1,0.1,0.1     c0.5-0.5,0.9-0.9,1.4-1.4c0.1-0.1,0.2-0.1,0.3-0.1c0,0,0,0,0.1,0c0.1,0,0.1,0,0.2,0.1c0.2,0.1,0.3,0.3,0.3,0.6     c0,0.1-0.1,0.1-0.1,0.2C268.9,9.8,268.5,10.3,268,10.7z M249.5,10.9c0.1,0,0.2-0.1,0.3-0.1c0.2-0.1,0.4-0.2,0.6-0.4     c0.2-0.2,0.3-0.4,0.4-0.6c0.1-0.2,0.1-0.4,0.2-0.6c0-0.2,0-0.5,0-0.7c-0.1-0.6-0.5-1.1-1-1.4c-0.3-0.1-0.6-0.2-0.8-0.2     c-0.1,0-0.1,0-0.2,0c-0.3,0-0.6,0.1-0.9,0.2c-0.5,0.3-0.9,0.8-1.1,1.4c0,0.2-0.1,0.5,0,0.7c0,0.2,0.1,0.4,0.2,0.6     c0.1,0.2,0.2,0.4,0.4,0.6c0.2,0.2,0.4,0.3,0.6,0.4c0.1,0,0.2,0.1,0.3,0.1c0-0.7,0-1.3,0-2c0-0.1,0-0.1,0-0.2     c0.1-0.2,0.2-0.3,0.4-0.3c0,0,0,0,0.1,0c0.2,0,0.4,0.1,0.4,0.3c0,0.1,0,0.1,0,0.2C249.5,9.6,249.5,10.3,249.5,10.9z M229.5,10.9     c0.1,0,0.2-0.1,0.3-0.1c0.2-0.1,0.4-0.2,0.6-0.4c0.2-0.2,0.3-0.4,0.4-0.6c0.1-0.2,0.1-0.4,0.2-0.6c0-0.2,0-0.5,0-0.7     c-0.1-0.6-0.5-1.1-1-1.4c-0.3-0.1-0.6-0.2-0.8-0.2c-0.1,0-0.1,0-0.2,0c-0.3,0-0.6,0.1-0.9,0.2c-0.5,0.3-0.9,0.8-1.1,1.4     c0,0.2-0.1,0.5,0,0.7c0,0.2,0.1,0.4,0.2,0.6c0.1,0.2,0.2,0.4,0.4,0.6c0.2,0.2,0.4,0.3,0.6,0.4c0.1,0,0.2,0.1,0.3,0.1     c0-0.7,0-1.3,0-2c0-0.2,0.1-0.4,0.3-0.4c0.1,0,0.1,0,0.2,0c0,0,0,0,0.1,0c0.2,0,0.4,0.1,0.4,0.3c0,0.1,0,0.1,0,0.2     C229.5,9.6,229.5,10.3,229.5,10.9z M259.5,10.9c0.1,0,0.2-0.1,0.3-0.1c0.2-0.1,0.4-0.2,0.6-0.4c0.2-0.2,0.3-0.4,0.4-0.6     c0.1-0.2,0.1-0.4,0.2-0.6c0-0.2,0-0.5,0-0.7c-0.1-0.6-0.5-1.1-1-1.4c-0.3-0.1-0.6-0.2-0.8-0.2c-0.1,0-0.1,0-0.2,0     c-0.3,0-0.6,0.1-0.9,0.2c-0.5,0.3-0.9,0.8-1.1,1.4c0,0.2-0.1,0.5,0,0.7c0,0.2,0.1,0.4,0.2,0.6c0.1,0.2,0.2,0.4,0.4,0.6     c0.2,0.2,0.4,0.3,0.6,0.4c0.1,0,0.2,0.1,0.3,0.1c0-0.7,0-1.3,0-2c0-0.1,0-0.1,0-0.2c0.1-0.2,0.2-0.3,0.4-0.3c0,0,0,0,0.1,0     c0.1,0,0.1,0,0.2,0c0.2,0.1,0.3,0.2,0.3,0.4C259.5,9.6,259.5,10.3,259.5,10.9z"></path>
		</g>
	</g>
</g>
</svg>